<?xml version="1.0" encoding="UTF-8" standalone="no"?>
<!DOCTYPE svg PUBLIC "-//W3C//DTD SVG 1.1//EN"
 "http://www.w3.org/Graphics/SVG/1.1/DTD/svg11.dtd">
<!-- Generated by graphviz version 2.40.1 (20161225.0304)
 -->
<!-- Title: dependencies Pages: 1 -->
<svg width="772pt" height="276pt"
 viewBox="0.00 0.00 772.00 276.00" xmlns="http://www.w3.org/2000/svg" xmlns:xlink="http://www.w3.org/1999/xlink">
<g id="graph0" class="graph" transform="scale(1 1) rotate(0) translate(4 272)">
<title>dependencies</title>
<polygon fill="#ffffff" stroke="transparent" points="-4,4 -4,-272 768,-272 768,4 -4,4"/>
<text text-anchor="start" x="361.0091" y="-42.4" font-family="sans-serif" font-weight="bold" font-size="14.00" fill="#000000">Legend</text>
<polygon fill="#ffffb3" stroke="transparent" points="148,-10 148,-30 168,-30 168,-10 148,-10"/>
<text text-anchor="start" x="171.629" y="-15.4" font-family="sans-serif" font-size="14.00" fill="#000000"> &#160;Declarations</text>
<polygon fill="#8dd3c7" stroke="transparent" points="261,-10 261,-30 281,-30 281,-10 261,-10"/>
<text text-anchor="start" x="284.7251" y="-15.4" font-family="sans-serif" font-size="14.00" fill="#000000"> &#160;Module</text>
<polygon fill="#80b1d3" stroke="transparent" points="347,-10 347,-30 367,-30 367,-10 347,-10"/>
<text text-anchor="start" x="370.7812" y="-15.4" font-family="sans-serif" font-size="14.00" fill="#000000"> &#160;Bootstrap</text>
<polygon fill="#fdb462" stroke="transparent" points="444,-10 444,-30 464,-30 464,-10 444,-10"/>
<text text-anchor="start" x="467.6732" y="-15.4" font-family="sans-serif" font-size="14.00" fill="#000000"> &#160;Providers</text>
<polygon fill="#fb8072" stroke="transparent" points="540,-10 540,-30 560,-30 560,-10 540,-10"/>
<text text-anchor="start" x="563.7258" y="-15.4" font-family="sans-serif" font-size="14.00" fill="#000000"> &#160;Exports</text>
<g id="clust1" class="cluster">
<title>cluster_AboutModule</title>
<polygon fill="none" stroke="#000000" stroke-dasharray="1,5" points="8,-70 8,-260 756,-260 756,-70 8,-70"/>
</g>
<g id="clust2" class="cluster">
<title>cluster_AboutModule_declarations</title>
<polygon fill="none" stroke="#000000" points="430,-143 430,-195 736,-195 736,-143 430,-143"/>
</g>
<g id="clust3" class="cluster">
<title>cluster_AboutModule_AboutComponent_providers</title>
<polygon fill="none" stroke="#000000" points="601,-78 601,-130 745,-130 745,-78 601,-78"/>
</g>
<g id="clust5" class="cluster">
<title>cluster_AboutModule_imports</title>
<polygon fill="none" stroke="#000000" points="16,-143 16,-195 422,-195 422,-143 16,-143"/>
</g>
<!-- AboutComponent -->
<g id="node1" class="node">
<title>AboutComponent</title>
<polygon fill="#ffffb3" stroke="#000000" points="728.3301,-187 611.6699,-187 611.6699,-151 728.3301,-151 728.3301,-187"/>
<text text-anchor="middle" x="670" y="-164.8" font-family="Times,serif" font-size="14.00" fill="#000000">AboutComponent</text>
</g>
<!-- AboutModule -->
<g id="node3" class="node">
<title>AboutModule</title>
<polygon fill="#8dd3c7" stroke="#000000" points="477.0481,-252 474.0481,-256 453.0481,-256 450.0481,-252 382.9519,-252 382.9519,-216 477.0481,-216 477.0481,-252"/>
<text text-anchor="middle" x="430" y="-229.8" font-family="Times,serif" font-size="14.00" fill="#000000">AboutModule</text>
</g>
<!-- AboutComponent&#45;&gt;AboutModule -->
<g id="edge1" class="edge">
<title>AboutComponent&#45;&gt;AboutModule</title>
<path fill="none" stroke="#000000" d="M670,-187.1061C670,-206.3391 670,-234 670,-234 670,-234 487.1299,-234 487.1299,-234"/>
<polygon fill="#000000" stroke="#000000" points="487.13,-230.5001 477.1299,-234 487.1299,-237.5001 487.13,-230.5001"/>
</g>
<!-- AboutDetailsComponent -->
<g id="node2" class="node">
<title>AboutDetailsComponent</title>
<polygon fill="#ffffb3" stroke="#000000" points="593.9818,-187 438.0182,-187 438.0182,-151 593.9818,-151 593.9818,-187"/>
<text text-anchor="middle" x="516" y="-164.8" font-family="Times,serif" font-size="14.00" fill="#000000">AboutDetailsComponent</text>
</g>
<!-- AboutDetailsComponent&#45;&gt;AboutModule -->
<g id="edge3" class="edge">
<title>AboutDetailsComponent&#45;&gt;AboutModule</title>
<path fill="none" stroke="#000000" d="M457.6413,-187.1061C457.6413,-187.1061 457.6413,-205.991 457.6413,-205.991"/>
<polygon fill="#000000" stroke="#000000" points="454.1414,-205.9909 457.6413,-215.991 461.1414,-205.991 454.1414,-205.9909"/>
</g>
<!-- AboutService -->
<g id="node4" class="node">
<title>AboutService</title>
<ellipse fill="#fdb462" stroke="#000000" cx="673" cy="-104" rx="64.2649" ry="18"/>
<text text-anchor="middle" x="673" y="-99.8" font-family="Times,serif" font-size="14.00" fill="#000000">AboutService</text>
</g>
<!-- AboutService&#45;&gt;AboutComponent -->
<g id="edge2" class="edge">
<title>AboutService&#45;&gt;AboutComponent</title>
<path fill="none" stroke="#000000" d="M670,-122.1061C670,-122.1061 670,-140.991 670,-140.991"/>
<polygon fill="#000000" stroke="#000000" points="666.5001,-140.9909 670,-150.991 673.5001,-140.991 666.5001,-140.9909"/>
</g>
<!-- AboutService&#45;&gt;AboutModule -->
<g id="edge7" class="edge">
<title>AboutService&#45;&gt;AboutModule</title>
<path fill="none" stroke="#000000" d="M608.7278,-104C535.5194,-104 425.9208,-104 425.9208,-104 425.9208,-104 425.9208,-205.9241 425.9208,-205.9241"/>
<polygon fill="#000000" stroke="#000000" points="422.4208,-205.924 425.9208,-215.9241 429.4208,-205.9241 422.4208,-205.924"/>
</g>
<!-- AboutRoutingModule -->
<g id="node5" class="node">
<title>AboutRoutingModule</title>
<polygon fill="#8dd3c7" stroke="#000000" points="413.6652,-187 410.6652,-191 389.6652,-191 386.6652,-187 274.3348,-187 274.3348,-151 413.6652,-151 413.6652,-187"/>
<text text-anchor="middle" x="344" y="-164.8" font-family="Times,serif" font-size="14.00" fill="#000000">AboutRoutingModule</text>
</g>
<!-- AboutRoutingModule&#45;&gt;AboutModule -->
<g id="edge4" class="edge">
<title>AboutRoutingModule&#45;&gt;AboutModule</title>
<path fill="none" stroke="#000000" d="M398.2795,-187.1061C398.2795,-187.1061 398.2795,-205.991 398.2795,-205.991"/>
<polygon fill="#000000" stroke="#000000" points="394.7795,-205.9909 398.2795,-215.991 401.7795,-205.991 394.7795,-205.9909"/>
</g>
<!-- SharedModule -->
<g id="node6" class="node">
<title>SharedModule</title>
<polygon fill="#8dd3c7" stroke="#000000" points="256.4231,-187 253.4231,-191 232.4231,-191 229.4231,-187 157.5769,-187 157.5769,-151 256.4231,-151 256.4231,-187"/>
<text text-anchor="middle" x="207" y="-164.8" font-family="Times,serif" font-size="14.00" fill="#000000">SharedModule</text>
</g>
<!-- SharedModule&#45;&gt;AboutModule -->
<g id="edge5" class="edge">
<title>SharedModule&#45;&gt;AboutModule</title>
<path fill="none" stroke="#000000" d="M207,-187.0225C207,-204.3734 207,-228 207,-228 207,-228 372.7074,-228 372.7074,-228"/>
<polygon fill="#000000" stroke="#000000" points="372.7075,-231.5001 382.7074,-228 372.7074,-224.5001 372.7075,-231.5001"/>
</g>
<!-- ClipboardModule -->
<g id="node7" class="node">
<title>ClipboardModule</title>
<polygon fill="#8dd3c7" stroke="#000000" points="139.5437,-187 136.5437,-191 115.5437,-191 112.5437,-187 24.4563,-187 24.4563,-151 139.5437,-151 139.5437,-187"/>
<text text-anchor="middle" x="82" y="-164.8" font-family="Times,serif" font-size="14.00" fill="#000000">ClipboardModule</text>
</g>
<!-- ClipboardModule&#45;&gt;AboutModule -->
<g id="edge6" class="edge">
<title>ClipboardModule&#45;&gt;AboutModule</title>
<path fill="none" stroke="#000000" d="M82,-187.2843C82,-208.3211 82,-240 82,-240 82,-240 372.705,-240 372.705,-240"/>
<polygon fill="#000000" stroke="#000000" points="372.705,-243.5001 382.705,-240 372.705,-236.5001 372.705,-243.5001"/>
</g>
</g>
</svg>
