<?xml version="1.0" encoding="UTF-8" standalone="no"?>
<!DOCTYPE svg PUBLIC "-//W3C//DTD SVG 1.1//EN"
 "http://www.w3.org/Graphics/SVG/1.1/DTD/svg11.dtd">
<!-- Generated by graphviz version 2.40.1 (20161225.0304)
 -->
<!-- Title: dependencies Pages: 1 -->
<svg width="570pt" height="211pt"
 viewBox="0.00 0.00 570.00 211.00" xmlns="http://www.w3.org/2000/svg" xmlns:xlink="http://www.w3.org/1999/xlink">
<g id="graph0" class="graph" transform="scale(1 1) rotate(0) translate(4 207)">
<title>dependencies</title>
<polygon fill="#ffffff" stroke="transparent" points="-4,4 -4,-207 566,-207 566,4 -4,4"/>
<text text-anchor="start" x="260.0091" y="-42.4" font-family="sans-serif" font-weight="bold" font-size="14.00" fill="#000000">Legend</text>
<polygon fill="#ffffb3" stroke="transparent" points="47,-10 47,-30 67,-30 67,-10 47,-10"/>
<text text-anchor="start" x="70.629" y="-15.4" font-family="sans-serif" font-size="14.00" fill="#000000"> &#160;Declarations</text>
<polygon fill="#8dd3c7" stroke="transparent" points="160,-10 160,-30 180,-30 180,-10 160,-10"/>
<text text-anchor="start" x="183.7251" y="-15.4" font-family="sans-serif" font-size="14.00" fill="#000000"> &#160;Module</text>
<polygon fill="#80b1d3" stroke="transparent" points="246,-10 246,-30 266,-30 266,-10 246,-10"/>
<text text-anchor="start" x="269.7812" y="-15.4" font-family="sans-serif" font-size="14.00" fill="#000000"> &#160;Bootstrap</text>
<polygon fill="#fdb462" stroke="transparent" points="343,-10 343,-30 363,-30 363,-10 343,-10"/>
<text text-anchor="start" x="366.6732" y="-15.4" font-family="sans-serif" font-size="14.00" fill="#000000"> &#160;Providers</text>
<polygon fill="#fb8072" stroke="transparent" points="439,-10 439,-30 459,-30 459,-10 439,-10"/>
<text text-anchor="start" x="462.7258" y="-15.4" font-family="sans-serif" font-size="14.00" fill="#000000"> &#160;Exports</text>
<g id="clust1" class="cluster">
<title>cluster_JobsModule</title>
<polygon fill="none" stroke="#000000" stroke-dasharray="1,5" points="8,-70 8,-195 554,-195 554,-70 8,-70"/>
</g>
<g id="clust2" class="cluster">
<title>cluster_JobsModule_declarations</title>
<polygon fill="none" stroke="#000000" points="424,-78 424,-130 546,-130 546,-78 424,-78"/>
</g>
<g id="clust4" class="cluster">
<title>cluster_JobsModule_imports</title>
<polygon fill="none" stroke="#000000" points="154,-78 154,-130 416,-130 416,-78 154,-78"/>
</g>
<g id="clust7" class="cluster">
<title>cluster_JobsModule_providers</title>
<polygon fill="none" stroke="#000000" points="16,-78 16,-130 146,-130 146,-78 16,-78"/>
</g>
<!-- JobsComponent -->
<g id="node1" class="node">
<title>JobsComponent</title>
<polygon fill="#ffffb3" stroke="#000000" points="538.2218,-122 431.7782,-122 431.7782,-86 538.2218,-86 538.2218,-122"/>
<text text-anchor="middle" x="485" y="-99.8" font-family="Times,serif" font-size="14.00" fill="#000000">JobsComponent</text>
</g>
<!-- JobsModule -->
<g id="node2" class="node">
<title>JobsModule</title>
<polygon fill="#8dd3c7" stroke="#000000" points="319.4401,-187 316.4401,-191 295.4401,-191 292.4401,-187 234.5599,-187 234.5599,-151 319.4401,-151 319.4401,-187"/>
<text text-anchor="middle" x="277" y="-164.8" font-family="Times,serif" font-size="14.00" fill="#000000">JobsModule</text>
</g>
<!-- JobsComponent&#45;&gt;JobsModule -->
<g id="edge1" class="edge">
<title>JobsComponent&#45;&gt;JobsModule</title>
<path fill="none" stroke="#000000" d="M485,-122.1061C485,-141.3391 485,-169 485,-169 485,-169 329.3426,-169 329.3426,-169"/>
<polygon fill="#000000" stroke="#000000" points="329.3426,-165.5001 319.3426,-169 329.3426,-172.5001 329.3426,-165.5001"/>
</g>
<!-- JobsRoutingModule -->
<g id="node3" class="node">
<title>JobsRoutingModule</title>
<polygon fill="#8dd3c7" stroke="#000000" points="407.5576,-122 404.5576,-126 383.5576,-126 380.5576,-122 278.4424,-122 278.4424,-86 407.5576,-86 407.5576,-122"/>
<text text-anchor="middle" x="343" y="-99.8" font-family="Times,serif" font-size="14.00" fill="#000000">JobsRoutingModule</text>
</g>
<!-- JobsRoutingModule&#45;&gt;JobsModule -->
<g id="edge2" class="edge">
<title>JobsRoutingModule&#45;&gt;JobsModule</title>
<path fill="none" stroke="#000000" d="M298.7206,-122.1061C298.7206,-122.1061 298.7206,-140.991 298.7206,-140.991"/>
<polygon fill="#000000" stroke="#000000" points="295.2206,-140.9909 298.7206,-150.991 302.2206,-140.991 295.2206,-140.9909"/>
</g>
<!-- SharedModule -->
<g id="node4" class="node">
<title>SharedModule</title>
<polygon fill="#8dd3c7" stroke="#000000" points="260.4231,-122 257.4231,-126 236.4231,-126 233.4231,-122 161.5769,-122 161.5769,-86 260.4231,-86 260.4231,-122"/>
<text text-anchor="middle" x="211" y="-99.8" font-family="Times,serif" font-size="14.00" fill="#000000">SharedModule</text>
</g>
<!-- SharedModule&#45;&gt;JobsModule -->
<g id="edge3" class="edge">
<title>SharedModule&#45;&gt;JobsModule</title>
<path fill="none" stroke="#000000" d="M247.4958,-122.1061C247.4958,-122.1061 247.4958,-140.991 247.4958,-140.991"/>
<polygon fill="#000000" stroke="#000000" points="243.9959,-140.9909 247.4958,-150.991 250.9959,-140.991 243.9959,-140.9909"/>
</g>
<!-- JobsService -->
<g id="node5" class="node">
<title>JobsService</title>
<ellipse fill="#fdb462" stroke="#000000" cx="81" cy="-104" rx="57.3205" ry="18"/>
<text text-anchor="middle" x="81" y="-99.8" font-family="Times,serif" font-size="14.00" fill="#000000">JobsService</text>
</g>
<!-- JobsService&#45;&gt;JobsModule -->
<g id="edge4" class="edge">
<title>JobsService&#45;&gt;JobsModule</title>
<path fill="none" stroke="#000000" d="M81,-122.1061C81,-141.3391 81,-169 81,-169 81,-169 224.4709,-169 224.4709,-169"/>
<polygon fill="#000000" stroke="#000000" points="224.471,-172.5001 234.4709,-169 224.4709,-165.5001 224.471,-172.5001"/>
</g>
</g>
</svg>
