<?xml version="1.0" encoding="UTF-8" standalone="no"?>
<!DOCTYPE svg PUBLIC "-//W3C//DTD SVG 1.1//EN"
 "http://www.w3.org/Graphics/SVG/1.1/DTD/svg11.dtd">
<!-- Generated by graphviz version 2.40.1 (20161225.0304)
 -->
<!-- Title: dependencies Pages: 1 -->
<svg width="666pt" height="211pt"
 viewBox="0.00 0.00 666.00 211.00" xmlns="http://www.w3.org/2000/svg" xmlns:xlink="http://www.w3.org/1999/xlink">
<g id="graph0" class="graph" transform="scale(1 1) rotate(0) translate(4 207)">
<title>dependencies</title>
<polygon fill="#ffffff" stroke="transparent" points="-4,4 -4,-207 662,-207 662,4 -4,4"/>
<text text-anchor="start" x="308.0091" y="-42.4" font-family="sans-serif" font-weight="bold" font-size="14.00" fill="#000000">Legend</text>
<polygon fill="#ffffb3" stroke="transparent" points="95,-10 95,-30 115,-30 115,-10 95,-10"/>
<text text-anchor="start" x="118.629" y="-15.4" font-family="sans-serif" font-size="14.00" fill="#000000"> &#160;Declarations</text>
<polygon fill="#8dd3c7" stroke="transparent" points="208,-10 208,-30 228,-30 228,-10 208,-10"/>
<text text-anchor="start" x="231.7251" y="-15.4" font-family="sans-serif" font-size="14.00" fill="#000000"> &#160;Module</text>
<polygon fill="#80b1d3" stroke="transparent" points="294,-10 294,-30 314,-30 314,-10 294,-10"/>
<text text-anchor="start" x="317.7812" y="-15.4" font-family="sans-serif" font-size="14.00" fill="#000000"> &#160;Bootstrap</text>
<polygon fill="#fdb462" stroke="transparent" points="391,-10 391,-30 411,-30 411,-10 391,-10"/>
<text text-anchor="start" x="414.6732" y="-15.4" font-family="sans-serif" font-size="14.00" fill="#000000"> &#160;Providers</text>
<polygon fill="#fb8072" stroke="transparent" points="487,-10 487,-30 507,-30 507,-10 487,-10"/>
<text text-anchor="start" x="510.7258" y="-15.4" font-family="sans-serif" font-size="14.00" fill="#000000"> &#160;Exports</text>
<g id="clust1" class="cluster">
<title>cluster_AnalyticsModule</title>
<polygon fill="none" stroke="#000000" stroke-dasharray="1,5" points="8,-70 8,-195 650,-195 650,-70 8,-70"/>
</g>
<g id="clust2" class="cluster">
<title>cluster_AnalyticsModule_declarations</title>
<polygon fill="none" stroke="#000000" points="492,-78 492,-130 642,-130 642,-78 492,-78"/>
</g>
<g id="clust4" class="cluster">
<title>cluster_AnalyticsModule_imports</title>
<polygon fill="none" stroke="#000000" points="194,-78 194,-130 484,-130 484,-78 194,-78"/>
</g>
<g id="clust7" class="cluster">
<title>cluster_AnalyticsModule_providers</title>
<polygon fill="none" stroke="#000000" points="16,-78 16,-130 186,-130 186,-78 16,-78"/>
</g>
<!-- AnalyticsComponent -->
<g id="node1" class="node">
<title>AnalyticsComponent</title>
<polygon fill="#ffffb3" stroke="#000000" points="634.4846,-122 499.5154,-122 499.5154,-86 634.4846,-86 634.4846,-122"/>
<text text-anchor="middle" x="567" y="-99.8" font-family="Times,serif" font-size="14.00" fill="#000000">AnalyticsComponent</text>
</g>
<!-- AnalyticsModule -->
<g id="node2" class="node">
<title>AnalyticsModule</title>
<polygon fill="#8dd3c7" stroke="#000000" points="380.7022,-187 377.7022,-191 356.7022,-191 353.7022,-187 267.2978,-187 267.2978,-151 380.7022,-151 380.7022,-187"/>
<text text-anchor="middle" x="324" y="-164.8" font-family="Times,serif" font-size="14.00" fill="#000000">AnalyticsModule</text>
</g>
<!-- AnalyticsComponent&#45;&gt;AnalyticsModule -->
<g id="edge1" class="edge">
<title>AnalyticsComponent&#45;&gt;AnalyticsModule</title>
<path fill="none" stroke="#000000" d="M567,-122.1061C567,-141.3391 567,-169 567,-169 567,-169 390.666,-169 390.666,-169"/>
<polygon fill="#000000" stroke="#000000" points="390.6661,-165.5001 380.666,-169 390.666,-172.5001 390.6661,-165.5001"/>
</g>
<!-- AnalyticsRoutingModule -->
<g id="node3" class="node">
<title>AnalyticsRoutingModule</title>
<polygon fill="#8dd3c7" stroke="#000000" points="476.3201,-122 473.3201,-126 452.3201,-126 449.3201,-122 317.6799,-122 317.6799,-86 476.3201,-86 476.3201,-122"/>
<text text-anchor="middle" x="397" y="-99.8" font-family="Times,serif" font-size="14.00" fill="#000000">AnalyticsRoutingModule</text>
</g>
<!-- AnalyticsRoutingModule&#45;&gt;AnalyticsModule -->
<g id="edge2" class="edge">
<title>AnalyticsRoutingModule&#45;&gt;AnalyticsModule</title>
<path fill="none" stroke="#000000" d="M349.2206,-122.1061C349.2206,-122.1061 349.2206,-140.991 349.2206,-140.991"/>
<polygon fill="#000000" stroke="#000000" points="345.7206,-140.9909 349.2206,-150.991 352.7206,-140.991 345.7206,-140.9909"/>
</g>
<!-- SharedModule -->
<g id="node4" class="node">
<title>SharedModule</title>
<polygon fill="#8dd3c7" stroke="#000000" points="300.4231,-122 297.4231,-126 276.4231,-126 273.4231,-122 201.5769,-122 201.5769,-86 300.4231,-86 300.4231,-122"/>
<text text-anchor="middle" x="251" y="-99.8" font-family="Times,serif" font-size="14.00" fill="#000000">SharedModule</text>
</g>
<!-- SharedModule&#45;&gt;AnalyticsModule -->
<g id="edge3" class="edge">
<title>SharedModule&#45;&gt;AnalyticsModule</title>
<path fill="none" stroke="#000000" d="M283.8051,-122.1061C283.8051,-122.1061 283.8051,-140.991 283.8051,-140.991"/>
<polygon fill="#000000" stroke="#000000" points="280.3051,-140.9909 283.8051,-150.991 287.3051,-140.991 280.3051,-140.9909"/>
</g>
<!-- AnalyticsService -->
<g id="node5" class="node">
<title>AnalyticsService</title>
<ellipse fill="#fdb462" stroke="#000000" cx="101" cy="-104" rx="77.0004" ry="18"/>
<text text-anchor="middle" x="101" y="-99.8" font-family="Times,serif" font-size="14.00" fill="#000000">AnalyticsService</text>
</g>
<!-- AnalyticsService&#45;&gt;AnalyticsModule -->
<g id="edge4" class="edge">
<title>AnalyticsService&#45;&gt;AnalyticsModule</title>
<path fill="none" stroke="#000000" d="M101,-122.1061C101,-141.3391 101,-169 101,-169 101,-169 257.1507,-169 257.1507,-169"/>
<polygon fill="#000000" stroke="#000000" points="257.1507,-172.5001 267.1507,-169 257.1507,-165.5001 257.1507,-172.5001"/>
</g>
</g>
</svg>
