<?xml version="1.0" encoding="UTF-8" standalone="no"?>
<!DOCTYPE svg PUBLIC "-//W3C//DTD SVG 1.1//EN"
 "http://www.w3.org/Graphics/SVG/1.1/DTD/svg11.dtd">
<!-- Generated by graphviz version 2.40.1 (20161225.0304)
 -->
<!-- Title: dependencies Pages: 1 -->
<svg width="1918pt" height="211pt"
 viewBox="0.00 0.00 1918.00 211.00" xmlns="http://www.w3.org/2000/svg" xmlns:xlink="http://www.w3.org/1999/xlink">
<g id="graph0" class="graph" transform="scale(1 1) rotate(0) translate(4 207)">
<title>dependencies</title>
<polygon fill="#ffffff" stroke="transparent" points="-4,4 -4,-207 1914,-207 1914,4 -4,4"/>
<text text-anchor="start" x="934.0091" y="-42.4" font-family="sans-serif" font-weight="bold" font-size="14.00" fill="#000000">Legend</text>
<polygon fill="#ffffb3" stroke="transparent" points="721,-10 721,-30 741,-30 741,-10 721,-10"/>
<text text-anchor="start" x="744.629" y="-15.4" font-family="sans-serif" font-size="14.00" fill="#000000"> &#160;Declarations</text>
<polygon fill="#8dd3c7" stroke="transparent" points="834,-10 834,-30 854,-30 854,-10 834,-10"/>
<text text-anchor="start" x="857.7251" y="-15.4" font-family="sans-serif" font-size="14.00" fill="#000000"> &#160;Module</text>
<polygon fill="#80b1d3" stroke="transparent" points="920,-10 920,-30 940,-30 940,-10 920,-10"/>
<text text-anchor="start" x="943.7812" y="-15.4" font-family="sans-serif" font-size="14.00" fill="#000000"> &#160;Bootstrap</text>
<polygon fill="#fdb462" stroke="transparent" points="1017,-10 1017,-30 1037,-30 1037,-10 1017,-10"/>
<text text-anchor="start" x="1040.6732" y="-15.4" font-family="sans-serif" font-size="14.00" fill="#000000"> &#160;Providers</text>
<polygon fill="#fb8072" stroke="transparent" points="1113,-10 1113,-30 1133,-30 1133,-10 1113,-10"/>
<text text-anchor="start" x="1136.7258" y="-15.4" font-family="sans-serif" font-size="14.00" fill="#000000"> &#160;Exports</text>
<g id="clust1" class="cluster">
<title>cluster_AppsModule</title>
<polygon fill="none" stroke="#000000" stroke-dasharray="1,5" points="8,-70 8,-195 1902,-195 1902,-70 8,-70"/>
</g>
<g id="clust2" class="cluster">
<title>cluster_AppsModule_declarations</title>
<polygon fill="none" stroke="#000000" points="1110,-78 1110,-130 1894,-130 1894,-78 1110,-78"/>
</g>
<g id="clust8" class="cluster">
<title>cluster_AppsModule_imports</title>
<polygon fill="none" stroke="#000000" points="160,-78 160,-130 1102,-130 1102,-78 160,-78"/>
</g>
<g id="clust11" class="cluster">
<title>cluster_AppsModule_providers</title>
<polygon fill="none" stroke="#000000" points="16,-78 16,-130 152,-130 152,-78 16,-78"/>
</g>
<!-- AppsComponent -->
<g id="node1" class="node">
<title>AppsComponent</title>
<polygon fill="#ffffb3" stroke="#000000" points="1886.3837,-122 1775.6163,-122 1775.6163,-86 1886.3837,-86 1886.3837,-122"/>
<text text-anchor="middle" x="1831" y="-99.8" font-family="Times,serif" font-size="14.00" fill="#000000">AppsComponent</text>
</g>
<!-- AppsModule -->
<g id="node6" class="node">
<title>AppsModule</title>
<polygon fill="#8dd3c7" stroke="#000000" points="1004.6011,-187 1001.6011,-191 980.6011,-191 977.6011,-187 915.3989,-187 915.3989,-151 1004.6011,-151 1004.6011,-187"/>
<text text-anchor="middle" x="960" y="-164.8" font-family="Times,serif" font-size="14.00" fill="#000000">AppsModule</text>
</g>
<!-- AppsComponent&#45;&gt;AppsModule -->
<g id="edge1" class="edge">
<title>AppsComponent&#45;&gt;AppsModule</title>
<path fill="none" stroke="#000000" d="M1831,-122.0908C1831,-145.1328 1831,-182 1831,-182 1831,-182 1014.6921,-182 1014.6921,-182"/>
<polygon fill="#000000" stroke="#000000" points="1014.6921,-178.5001 1004.6921,-182 1014.6921,-185.5001 1014.6921,-178.5001"/>
</g>
<!-- AppsBulkImportComponent -->
<g id="node2" class="node">
<title>AppsBulkImportComponent</title>
<polygon fill="#ffffb3" stroke="#000000" points="1757.2133,-122 1580.7867,-122 1580.7867,-86 1757.2133,-86 1757.2133,-122"/>
<text text-anchor="middle" x="1669" y="-99.8" font-family="Times,serif" font-size="14.00" fill="#000000">AppsBulkImportComponent</text>
</g>
<!-- AppsBulkImportComponent&#45;&gt;AppsModule -->
<g id="edge2" class="edge">
<title>AppsBulkImportComponent&#45;&gt;AppsModule</title>
<path fill="none" stroke="#000000" d="M1669,-122.2843C1669,-143.3211 1669,-175 1669,-175 1669,-175 1014.6197,-175 1014.6197,-175"/>
<polygon fill="#000000" stroke="#000000" points="1014.6197,-171.5001 1004.6197,-175 1014.6197,-178.5001 1014.6197,-171.5001"/>
</g>
<!-- AppsRegisterComponent -->
<g id="node3" class="node">
<title>AppsRegisterComponent</title>
<polygon fill="#ffffb3" stroke="#000000" points="1562.5365,-122 1405.4635,-122 1405.4635,-86 1562.5365,-86 1562.5365,-122"/>
<text text-anchor="middle" x="1484" y="-99.8" font-family="Times,serif" font-size="14.00" fill="#000000">AppsRegisterComponent</text>
</g>
<!-- AppsRegisterComponent&#45;&gt;AppsModule -->
<g id="edge3" class="edge">
<title>AppsRegisterComponent&#45;&gt;AppsModule</title>
<path fill="none" stroke="#000000" d="M1484,-122.1061C1484,-141.3391 1484,-169 1484,-169 1484,-169 1014.6759,-169 1014.6759,-169"/>
<polygon fill="#000000" stroke="#000000" points="1014.676,-165.5001 1004.6759,-169 1014.6759,-172.5001 1014.676,-165.5001"/>
</g>
<!-- AppDetailsComponent -->
<g id="node4" class="node">
<title>AppDetailsComponent</title>
<polygon fill="#ffffb3" stroke="#000000" points="1387.5912,-122 1242.4088,-122 1242.4088,-86 1387.5912,-86 1387.5912,-122"/>
<text text-anchor="middle" x="1315" y="-99.8" font-family="Times,serif" font-size="14.00" fill="#000000">AppDetailsComponent</text>
</g>
<!-- AppDetailsComponent&#45;&gt;AppsModule -->
<g id="edge4" class="edge">
<title>AppDetailsComponent&#45;&gt;AppsModule</title>
<path fill="none" stroke="#000000" d="M1315,-122.0225C1315,-139.3734 1315,-163 1315,-163 1315,-163 1014.6015,-163 1014.6015,-163"/>
<polygon fill="#000000" stroke="#000000" points="1014.6016,-159.5001 1004.6015,-163 1014.6015,-166.5001 1014.6016,-159.5001"/>
</g>
<!-- SearchfilterPipe -->
<g id="node5" class="node">
<title>SearchfilterPipe</title>
<polygon fill="#ffffb3" stroke="#000000" points="1224.1826,-122 1117.8174,-122 1117.8174,-86 1224.1826,-86 1224.1826,-122"/>
<text text-anchor="middle" x="1171" y="-99.8" font-family="Times,serif" font-size="14.00" fill="#000000">SearchfilterPipe</text>
</g>
<!-- SearchfilterPipe&#45;&gt;AppsModule -->
<g id="edge5" class="edge">
<title>SearchfilterPipe&#45;&gt;AppsModule</title>
<path fill="none" stroke="#000000" d="M1171,-122.2396C1171,-137.5706 1171,-157 1171,-157 1171,-157 1014.7477,-157 1014.7477,-157"/>
<polygon fill="#000000" stroke="#000000" points="1014.7477,-153.5001 1004.7477,-157 1014.7476,-160.5001 1014.7477,-153.5001"/>
</g>
<!-- AppsRoutingModule -->
<g id="node7" class="node">
<title>AppsRoutingModule</title>
<polygon fill="#8dd3c7" stroke="#000000" points="1094.219,-122 1091.219,-126 1070.219,-126 1067.219,-122 959.781,-122 959.781,-86 1094.219,-86 1094.219,-122"/>
<text text-anchor="middle" x="1027" y="-99.8" font-family="Times,serif" font-size="14.00" fill="#000000">AppsRoutingModule</text>
</g>
<!-- AppsRoutingModule&#45;&gt;AppsModule -->
<g id="edge6" class="edge">
<title>AppsRoutingModule&#45;&gt;AppsModule</title>
<path fill="none" stroke="#000000" d="M982.2206,-122.1061C982.2206,-122.1061 982.2206,-140.991 982.2206,-140.991"/>
<polygon fill="#000000" stroke="#000000" points="978.7206,-140.9909 982.2206,-150.991 985.7206,-140.991 978.7206,-140.9909"/>
</g>
<!-- SharedModule -->
<g id="node8" class="node">
<title>SharedModule</title>
<polygon fill="#8dd3c7" stroke="#000000" points="942.4231,-122 939.4231,-126 918.4231,-126 915.4231,-122 843.5769,-122 843.5769,-86 942.4231,-86 942.4231,-122"/>
<text text-anchor="middle" x="893" y="-99.8" font-family="Times,serif" font-size="14.00" fill="#000000">SharedModule</text>
</g>
<!-- SharedModule&#45;&gt;AppsModule -->
<g id="edge7" class="edge">
<title>SharedModule&#45;&gt;AppsModule</title>
<path fill="none" stroke="#000000" d="M928.8303,-122.1061C928.8303,-122.1061 928.8303,-140.991 928.8303,-140.991"/>
<polygon fill="#000000" stroke="#000000" points="925.3304,-140.9909 928.8303,-150.991 932.3304,-140.991 925.3304,-140.9909"/>
</g>
<!-- NgxPaginationModule -->
<g id="node9" class="node">
<title>NgxPaginationModule</title>
<polygon fill="#8dd3c7" stroke="#000000" points="825.5407,-122 822.5407,-126 801.5407,-126 798.5407,-122 682.4593,-122 682.4593,-86 825.5407,-86 825.5407,-122"/>
<text text-anchor="middle" x="754" y="-99.8" font-family="Times,serif" font-size="14.00" fill="#000000">NgxPaginationModule</text>
</g>
<!-- NgxPaginationModule&#45;&gt;AppsModule -->
<g id="edge8" class="edge">
<title>NgxPaginationModule&#45;&gt;AppsModule</title>
<path fill="none" stroke="#000000" d="M754,-122.2396C754,-137.5706 754,-157 754,-157 754,-157 905.3011,-157 905.3011,-157"/>
<polygon fill="#000000" stroke="#000000" points="905.3011,-160.5001 915.3011,-157 905.301,-153.5001 905.3011,-160.5001"/>
</g>
<!-- AlertModule.forRoot() -->
<g id="node10" class="node">
<title>AlertModule.forRoot()</title>
<polygon fill="#8dd3c7" stroke="#000000" points="664.1827,-122 661.1827,-126 640.1827,-126 637.1827,-122 519.8173,-122 519.8173,-86 664.1827,-86 664.1827,-122"/>
<text text-anchor="middle" x="592" y="-99.8" font-family="Times,serif" font-size="14.00" fill="#000000">AlertModule.forRoot()</text>
</g>
<!-- AlertModule.forRoot()&#45;&gt;AppsModule -->
<g id="edge9" class="edge">
<title>AlertModule.forRoot()&#45;&gt;AppsModule</title>
<path fill="none" stroke="#000000" d="M592,-122.0225C592,-139.3734 592,-163 592,-163 592,-163 905.2439,-163 905.2439,-163"/>
<polygon fill="#000000" stroke="#000000" points="905.2439,-166.5001 915.2439,-163 905.2438,-159.5001 905.2439,-166.5001"/>
</g>
<!-- ModalModule.forRoot() -->
<g id="node11" class="node">
<title>ModalModule.forRoot()</title>
<polygon fill="#8dd3c7" stroke="#000000" points="501.4699,-122 498.4699,-126 477.4699,-126 474.4699,-122 348.5301,-122 348.5301,-86 501.4699,-86 501.4699,-122"/>
<text text-anchor="middle" x="425" y="-99.8" font-family="Times,serif" font-size="14.00" fill="#000000">ModalModule.forRoot()</text>
</g>
<!-- ModalModule.forRoot()&#45;&gt;AppsModule -->
<g id="edge10" class="edge">
<title>ModalModule.forRoot()&#45;&gt;AppsModule</title>
<path fill="none" stroke="#000000" d="M425,-122.1061C425,-141.3391 425,-169 425,-169 425,-169 905.3064,-169 905.3064,-169"/>
<polygon fill="#000000" stroke="#000000" points="905.3064,-172.5001 915.3064,-169 905.3064,-165.5001 905.3064,-172.5001"/>
</g>
<!-- PopoverModule.forRoot() -->
<g id="node12" class="node">
<title>PopoverModule.forRoot()</title>
<polygon fill="#8dd3c7" stroke="#000000" points="330.0777,-122 327.0777,-126 306.0777,-126 303.0777,-122 167.9223,-122 167.9223,-86 330.0777,-86 330.0777,-122"/>
<text text-anchor="middle" x="249" y="-99.8" font-family="Times,serif" font-size="14.00" fill="#000000">PopoverModule.forRoot()</text>
</g>
<!-- PopoverModule.forRoot()&#45;&gt;AppsModule -->
<g id="edge11" class="edge">
<title>PopoverModule.forRoot()&#45;&gt;AppsModule</title>
<path fill="none" stroke="#000000" d="M249,-122.2843C249,-143.3211 249,-175 249,-175 249,-175 905.2544,-175 905.2544,-175"/>
<polygon fill="#000000" stroke="#000000" points="905.2545,-178.5001 915.2544,-175 905.2544,-171.5001 905.2545,-178.5001"/>
</g>
<!-- AppsService -->
<g id="node13" class="node">
<title>AppsService</title>
<ellipse fill="#fdb462" stroke="#000000" cx="84" cy="-104" rx="60.2518" ry="18"/>
<text text-anchor="middle" x="84" y="-99.8" font-family="Times,serif" font-size="14.00" fill="#000000">AppsService</text>
</g>
<!-- AppsService&#45;&gt;AppsModule -->
<g id="edge12" class="edge">
<title>AppsService&#45;&gt;AppsModule</title>
<path fill="none" stroke="#000000" d="M84,-122.0908C84,-145.1328 84,-182 84,-182 84,-182 905.3547,-182 905.3547,-182"/>
<polygon fill="#000000" stroke="#000000" points="905.3547,-185.5001 915.3547,-182 905.3547,-178.5001 905.3547,-185.5001"/>
</g>
</g>
</svg>
