<?xml version="1.0" encoding="UTF-8" standalone="no"?>
<!DOCTYPE svg PUBLIC "-//W3C//DTD SVG 1.1//EN"
 "http://www.w3.org/Graphics/SVG/1.1/DTD/svg11.dtd">
<!-- Generated by graphviz version 2.40.1 (20161225.0304)
 -->
<!-- Title: dependencies Pages: 1 -->
<svg width="2773pt" height="284pt"
 viewBox="0.00 0.00 2773.00 284.00" xmlns="http://www.w3.org/2000/svg" xmlns:xlink="http://www.w3.org/1999/xlink">
<g id="graph0" class="graph" transform="scale(1 1) rotate(0) translate(4 280)">
<title>dependencies</title>
<polygon fill="#ffffff" stroke="transparent" points="-4,4 -4,-280 2769,-280 2769,4 -4,4"/>
<text text-anchor="start" x="1361.5091" y="-42.4" font-family="sans-serif" font-weight="bold" font-size="14.00" fill="#000000">Legend</text>
<polygon fill="#ffffb3" stroke="transparent" points="1148.5,-10 1148.5,-30 1168.5,-30 1168.5,-10 1148.5,-10"/>
<text text-anchor="start" x="1172.129" y="-15.4" font-family="sans-serif" font-size="14.00" fill="#000000"> &#160;Declarations</text>
<polygon fill="#8dd3c7" stroke="transparent" points="1261.5,-10 1261.5,-30 1281.5,-30 1281.5,-10 1261.5,-10"/>
<text text-anchor="start" x="1285.2251" y="-15.4" font-family="sans-serif" font-size="14.00" fill="#000000"> &#160;Module</text>
<polygon fill="#80b1d3" stroke="transparent" points="1347.5,-10 1347.5,-30 1367.5,-30 1367.5,-10 1347.5,-10"/>
<text text-anchor="start" x="1371.2812" y="-15.4" font-family="sans-serif" font-size="14.00" fill="#000000"> &#160;Bootstrap</text>
<polygon fill="#fdb462" stroke="transparent" points="1444.5,-10 1444.5,-30 1464.5,-30 1464.5,-10 1444.5,-10"/>
<text text-anchor="start" x="1468.1732" y="-15.4" font-family="sans-serif" font-size="14.00" fill="#000000"> &#160;Providers</text>
<polygon fill="#fb8072" stroke="transparent" points="1540.5,-10 1540.5,-30 1560.5,-30 1560.5,-10 1540.5,-10"/>
<text text-anchor="start" x="1564.2258" y="-15.4" font-family="sans-serif" font-size="14.00" fill="#000000"> &#160;Exports</text>
<g id="clust1" class="cluster">
<title>cluster_SharedModule</title>
<polygon fill="none" stroke="#000000" stroke-dasharray="1,5" points="8,-70 8,-268 2757,-268 2757,-70 8,-70"/>
</g>
<g id="clust2" class="cluster">
<title>cluster_SharedModule_declarations</title>
<polygon fill="none" stroke="#000000" points="1547,-78 1547,-130 2749,-130 2749,-78 1547,-78"/>
</g>
<g id="clust11" class="cluster">
<title>cluster_SharedModule_imports</title>
<polygon fill="none" stroke="#000000" points="506,-78 506,-130 1539,-130 1539,-78 506,-78"/>
</g>
<g id="clust12" class="cluster">
<title>cluster_SharedModule_exports</title>
<polygon fill="none" stroke="#000000" points="605,-208 605,-260 2056,-260 2056,-208 605,-208"/>
</g>
<g id="clust14" class="cluster">
<title>cluster_SharedModule_providers</title>
<polygon fill="none" stroke="#000000" points="16,-78 16,-130 498,-130 498,-78 16,-78"/>
</g>
<!-- CapitalizePipe -->
<g id="node1" class="node">
<title>CapitalizePipe</title>
<polygon fill="#ffffb3" stroke="#000000" points="2740.6458,-122 2643.3542,-122 2643.3542,-86 2740.6458,-86 2740.6458,-122"/>
<text text-anchor="middle" x="2692" y="-99.8" font-family="Times,serif" font-size="14.00" fill="#000000">CapitalizePipe</text>
</g>
<!-- SharedModule -->
<g id="node9" class="node">
<title>SharedModule</title>
<polygon fill="#8dd3c7" stroke="#000000" points="1463.4231,-187 1460.4231,-191 1439.4231,-191 1436.4231,-187 1364.5769,-187 1364.5769,-151 1463.4231,-151 1463.4231,-187"/>
<text text-anchor="middle" x="1414" y="-164.8" font-family="Times,serif" font-size="14.00" fill="#000000">SharedModule</text>
</g>
<!-- CapitalizePipe&#45;&gt;SharedModule -->
<g id="edge1" class="edge">
<title>CapitalizePipe&#45;&gt;SharedModule</title>
<path fill="none" stroke="#000000" d="M2692,-122.0267C2692,-142.7672 2692,-174 2692,-174 2692,-174 1473.316,-174 1473.316,-174"/>
<polygon fill="#000000" stroke="#000000" points="1473.3161,-170.5001 1463.316,-174 1473.316,-177.5001 1473.3161,-170.5001"/>
</g>
<!-- KeyValuePipe -->
<g id="node2" class="node">
<title>KeyValuePipe</title>
<polygon fill="#ffffb3" stroke="#000000" points="2624.6361,-122 2527.3639,-122 2527.3639,-86 2624.6361,-86 2624.6361,-122"/>
<text text-anchor="middle" x="2576" y="-99.8" font-family="Times,serif" font-size="14.00" fill="#000000">KeyValuePipe</text>
</g>
<!-- KeyValuePipe&#45;&gt;SharedModule -->
<g id="edge2" class="edge">
<title>KeyValuePipe&#45;&gt;SharedModule</title>
<path fill="none" stroke="#000000" d="M2576,-122.308C2576,-142.1455 2576,-171 2576,-171 2576,-171 1473.558,-171 1473.558,-171"/>
<polygon fill="#000000" stroke="#000000" points="1473.558,-167.5001 1463.558,-171 1473.5579,-174.5001 1473.558,-167.5001"/>
</g>
<!-- TriStateButtonComponent -->
<g id="node3" class="node">
<title>TriStateButtonComponent</title>
<polygon fill="#ffffb3" stroke="#000000" points="2509.0476,-122 2344.9524,-122 2344.9524,-86 2509.0476,-86 2509.0476,-122"/>
<text text-anchor="middle" x="2427" y="-99.8" font-family="Times,serif" font-size="14.00" fill="#000000">TriStateButtonComponent</text>
</g>
<!-- TriStateButtonComponent&#45;&gt;SharedModule -->
<g id="edge3" class="edge">
<title>TriStateButtonComponent&#45;&gt;SharedModule</title>
<path fill="none" stroke="#000000" d="M2427,-122.1686C2427,-141.0898 2427,-168 2427,-168 2427,-168 1473.5448,-168 1473.5448,-168"/>
<polygon fill="#000000" stroke="#000000" points="1473.5449,-164.5001 1463.5448,-168 1473.5448,-171.5001 1473.5449,-164.5001"/>
</g>
<!-- TriStateCheckboxComponent -->
<g id="node4" class="node">
<title>TriStateCheckboxComponent</title>
<polygon fill="#ffffb3" stroke="#000000" points="2326.6951,-122 2143.3049,-122 2143.3049,-86 2326.6951,-86 2326.6951,-122"/>
<text text-anchor="middle" x="2235" y="-99.8" font-family="Times,serif" font-size="14.00" fill="#000000">TriStateCheckboxComponent</text>
</g>
<!-- TriStateCheckboxComponent&#45;&gt;SharedModule -->
<g id="edge4" class="edge">
<title>TriStateCheckboxComponent&#45;&gt;SharedModule</title>
<path fill="none" stroke="#000000" d="M2235,-122.302C2235,-140.2699 2235,-165 2235,-165 2235,-165 1473.5083,-165 1473.5083,-165"/>
<polygon fill="#000000" stroke="#000000" points="1473.5084,-161.5001 1463.5083,-165 1473.5083,-168.5001 1473.5084,-161.5001"/>
</g>
<!-- ClickOutsideDirective -->
<g id="node5" class="node">
<title>ClickOutsideDirective</title>
<polygon fill="#ffffb3" stroke="#000000" points="2124.9622,-122 1983.0378,-122 1983.0378,-86 2124.9622,-86 2124.9622,-122"/>
<text text-anchor="middle" x="2054" y="-99.8" font-family="Times,serif" font-size="14.00" fill="#000000">ClickOutsideDirective</text>
</g>
<!-- ClickOutsideDirective&#45;&gt;SharedModule -->
<g id="edge5" class="edge">
<title>ClickOutsideDirective&#45;&gt;SharedModule</title>
<path fill="none" stroke="#000000" d="M2015.4672,-122.0225C2015.4672,-139.3734 2015.4672,-163 2015.4672,-163 2015.4672,-163 1473.2206,-163 1473.2206,-163"/>
<polygon fill="#000000" stroke="#000000" points="1473.2206,-159.5001 1463.2206,-163 1473.2206,-166.5001 1473.2206,-159.5001"/>
</g>
<!-- PropertyTableComponent -->
<g id="node6" class="node">
<title>PropertyTableComponent</title>
<polygon fill="#ffffb3" stroke="#000000" points="1964.9143,-122 1803.0857,-122 1803.0857,-86 1964.9143,-86 1964.9143,-122"/>
<text text-anchor="middle" x="1884" y="-99.8" font-family="Times,serif" font-size="14.00" fill="#000000">PropertyTableComponent</text>
</g>
<!-- PropertyTableComponent&#45;&gt;SharedModule -->
<g id="edge6" class="edge">
<title>PropertyTableComponent&#45;&gt;SharedModule</title>
<path fill="none" stroke="#000000" d="M1870.5121,-122.027C1870.5121,-138.3976 1870.5121,-160 1870.5121,-160 1870.5121,-160 1473.2885,-160 1473.2885,-160"/>
<polygon fill="#000000" stroke="#000000" points="1473.2886,-156.5001 1463.2885,-160 1473.2885,-163.5001 1473.2886,-156.5001"/>
</g>
<!-- TabsComponent -->
<g id="node7" class="node">
<title>TabsComponent</title>
<polygon fill="#ffffb3" stroke="#000000" points="1785.0452,-122 1676.9548,-122 1676.9548,-86 1785.0452,-86 1785.0452,-122"/>
<text text-anchor="middle" x="1731" y="-99.8" font-family="Times,serif" font-size="14.00" fill="#000000">TabsComponent</text>
</g>
<!-- TabsComponent&#45;&gt;SharedModule -->
<g id="edge7" class="edge">
<title>TabsComponent&#45;&gt;SharedModule</title>
<path fill="none" stroke="#000000" d="M1725.6559,-122.2396C1725.6559,-137.5706 1725.6559,-157 1725.6559,-157 1725.6559,-157 1473.3828,-157 1473.3828,-157"/>
<polygon fill="#000000" stroke="#000000" points="1473.3828,-153.5001 1463.3828,-157 1473.3828,-160.5001 1473.3828,-153.5001"/>
</g>
<!-- TabComponent -->
<g id="node8" class="node">
<title>TabComponent</title>
<polygon fill="#ffffb3" stroke="#000000" points="1658.5996,-122 1555.4004,-122 1555.4004,-86 1658.5996,-86 1658.5996,-122"/>
<text text-anchor="middle" x="1607" y="-99.8" font-family="Times,serif" font-size="14.00" fill="#000000">TabComponent</text>
</g>
<!-- TabComponent&#45;&gt;SharedModule -->
<g id="edge8" class="edge">
<title>TabComponent&#45;&gt;SharedModule</title>
<path fill="none" stroke="#000000" d="M1598.4322,-122.0511C1598.4322,-136.373 1598.4322,-154 1598.4322,-154 1598.4322,-154 1473.4244,-154 1473.4244,-154"/>
<polygon fill="#000000" stroke="#000000" points="1473.4245,-150.5001 1463.4244,-154 1473.4244,-157.5001 1473.4245,-150.5001"/>
</g>
<!-- BusyModule  -->
<g id="node17" class="node">
<title>BusyModule </title>
<polygon fill="#fb8072" stroke="#000000" points="2047.8312,-252 1956.1688,-252 1956.1688,-216 2047.8312,-216 2047.8312,-252"/>
<text text-anchor="middle" x="2002" y="-229.8" font-family="Times,serif" font-size="14.00" fill="#000000">BusyModule </text>
</g>
<!-- SharedModule&#45;&gt;BusyModule  -->
<g id="edge16" class="edge">
<title>SharedModule&#45;&gt;BusyModule </title>
<path fill="none" stroke="#000000" stroke-dasharray="5,2" d="M1463.4527,-176C1597.9529,-176 1960.3957,-176 1960.3957,-176 1960.3957,-176 1960.3957,-205.9664 1960.3957,-205.9664"/>
<polygon fill="#000000" stroke="#000000" points="1956.8958,-205.9663 1960.3957,-215.9664 1963.8958,-205.9664 1956.8958,-205.9663"/>
</g>
<!-- ClickOutsideDirective  -->
<g id="node18" class="node">
<title>ClickOutsideDirective </title>
<polygon fill="#fb8072" stroke="#000000" points="1937.9629,-252 1792.0371,-252 1792.0371,-216 1937.9629,-216 1937.9629,-252"/>
<text text-anchor="middle" x="1865" y="-229.8" font-family="Times,serif" font-size="14.00" fill="#000000">ClickOutsideDirective </text>
</g>
<!-- SharedModule&#45;&gt;ClickOutsideDirective  -->
<g id="edge17" class="edge">
<title>SharedModule&#45;&gt;ClickOutsideDirective </title>
<path fill="none" stroke="#000000" stroke-dasharray="5,2" d="M1463.387,-179C1567.0401,-179 1797.781,-179 1797.781,-179 1797.781,-179 1797.781,-205.9909 1797.781,-205.9909"/>
<polygon fill="#000000" stroke="#000000" points="1794.2811,-205.9909 1797.781,-215.9909 1801.2811,-205.991 1794.2811,-205.9909"/>
</g>
<!-- CommonModule  -->
<g id="node19" class="node">
<title>CommonModule </title>
<polygon fill="#fb8072" stroke="#000000" points="1774.6677,-252 1659.3323,-252 1659.3323,-216 1774.6677,-216 1774.6677,-252"/>
<text text-anchor="middle" x="1717" y="-229.8" font-family="Times,serif" font-size="14.00" fill="#000000">CommonModule </text>
</g>
<!-- SharedModule&#45;&gt;CommonModule  -->
<g id="edge18" class="edge">
<title>SharedModule&#45;&gt;CommonModule </title>
<path fill="none" stroke="#000000" stroke-dasharray="5,2" d="M1463.2889,-182C1537.1745,-182 1668.0721,-182 1668.0721,-182 1668.0721,-182 1668.0721,-205.8129 1668.0721,-205.8129"/>
<polygon fill="#000000" stroke="#000000" points="1664.5721,-205.8129 1668.0721,-215.8129 1671.5721,-205.813 1664.5721,-205.8129"/>
</g>
<!-- FormsModule  -->
<g id="node20" class="node">
<title>FormsModule </title>
<polygon fill="#fb8072" stroke="#000000" points="1641.3283,-252 1542.6717,-252 1542.6717,-216 1641.3283,-216 1641.3283,-252"/>
<text text-anchor="middle" x="1592" y="-229.8" font-family="Times,serif" font-size="14.00" fill="#000000">FormsModule </text>
</g>
<!-- SharedModule&#45;&gt;FormsModule  -->
<g id="edge19" class="edge">
<title>SharedModule&#45;&gt;FormsModule </title>
<path fill="none" stroke="#000000" stroke-dasharray="5,2" d="M1463.5091,-185C1502.0432,-185 1549.0181,-185 1549.0181,-185 1549.0181,-185 1549.0181,-205.7542 1549.0181,-205.7542"/>
<polygon fill="#000000" stroke="#000000" points="1545.5181,-205.7542 1549.0181,-215.7542 1552.5181,-205.7542 1545.5181,-205.7542"/>
</g>
<!-- ToastyModule  -->
<g id="node21" class="node">
<title>ToastyModule </title>
<polygon fill="#fb8072" stroke="#000000" points="1524.6523,-252 1423.3477,-252 1423.3477,-216 1524.6523,-216 1524.6523,-252"/>
<text text-anchor="middle" x="1474" y="-229.8" font-family="Times,serif" font-size="14.00" fill="#000000">ToastyModule </text>
</g>
<!-- SharedModule&#45;&gt;ToastyModule  -->
<g id="edge20" class="edge">
<title>SharedModule&#45;&gt;ToastyModule </title>
<path fill="none" stroke="#000000" stroke-dasharray="5,2" d="M1443.3175,-187.1061C1443.3175,-187.1061 1443.3175,-205.991 1443.3175,-205.991"/>
<polygon fill="#000000" stroke="#000000" points="1439.8176,-205.9909 1443.3175,-215.991 1446.8176,-205.991 1439.8176,-205.9909"/>
</g>
<!-- CapitalizePipe  -->
<g id="node22" class="node">
<title>CapitalizePipe </title>
<polygon fill="#fb8072" stroke="#000000" points="1405.6453,-252 1304.3547,-252 1304.3547,-216 1405.6453,-216 1405.6453,-252"/>
<text text-anchor="middle" x="1355" y="-229.8" font-family="Times,serif" font-size="14.00" fill="#000000">CapitalizePipe </text>
</g>
<!-- SharedModule&#45;&gt;CapitalizePipe  -->
<g id="edge21" class="edge">
<title>SharedModule&#45;&gt;CapitalizePipe </title>
<path fill="none" stroke="#000000" stroke-dasharray="5,2" d="M1385.1808,-187.1061C1385.1808,-187.1061 1385.1808,-205.991 1385.1808,-205.991"/>
<polygon fill="#000000" stroke="#000000" points="1381.6808,-205.9909 1385.1808,-215.991 1388.6808,-205.991 1381.6808,-205.9909"/>
</g>
<!-- KeyValuePipe  -->
<g id="node23" class="node">
<title>KeyValuePipe </title>
<polygon fill="#fb8072" stroke="#000000" points="1286.6355,-252 1185.3645,-252 1185.3645,-216 1286.6355,-216 1286.6355,-252"/>
<text text-anchor="middle" x="1236" y="-229.8" font-family="Times,serif" font-size="14.00" fill="#000000">KeyValuePipe </text>
</g>
<!-- SharedModule&#45;&gt;KeyValuePipe  -->
<g id="edge22" class="edge">
<title>SharedModule&#45;&gt;KeyValuePipe </title>
<path fill="none" stroke="#000000" stroke-dasharray="5,2" d="M1364.5795,-185C1310.4948,-185 1231.3767,-185 1231.3767,-185 1231.3767,-185 1231.3767,-205.7542 1231.3767,-205.7542"/>
<polygon fill="#000000" stroke="#000000" points="1227.8768,-205.7542 1231.3767,-215.7542 1234.8768,-205.7542 1227.8768,-205.7542"/>
</g>
<!-- TriStateCheckboxComponent  -->
<g id="node24" class="node">
<title>TriStateCheckboxComponent </title>
<polygon fill="#fb8072" stroke="#000000" points="1167.1952,-252 980.8048,-252 980.8048,-216 1167.1952,-216 1167.1952,-252"/>
<text text-anchor="middle" x="1074" y="-229.8" font-family="Times,serif" font-size="14.00" fill="#000000">TriStateCheckboxComponent </text>
</g>
<!-- SharedModule&#45;&gt;TriStateCheckboxComponent  -->
<g id="edge23" class="edge">
<title>SharedModule&#45;&gt;TriStateCheckboxComponent </title>
<path fill="none" stroke="#000000" stroke-dasharray="5,2" d="M1364.6322,-182C1277.2794,-182 1104.5977,-182 1104.5977,-182 1104.5977,-182 1104.5977,-205.8129 1104.5977,-205.8129"/>
<polygon fill="#000000" stroke="#000000" points="1101.0977,-205.8129 1104.5977,-215.8129 1108.0977,-205.813 1101.0977,-205.8129"/>
</g>
<!-- TriStateButtonComponent  -->
<g id="node25" class="node">
<title>TriStateButtonComponent </title>
<polygon fill="#fb8072" stroke="#000000" points="963.047,-252 794.953,-252 794.953,-216 963.047,-216 963.047,-252"/>
<text text-anchor="middle" x="879" y="-229.8" font-family="Times,serif" font-size="14.00" fill="#000000">TriStateButtonComponent </text>
</g>
<!-- SharedModule&#45;&gt;TriStateButtonComponent  -->
<g id="edge24" class="edge">
<title>SharedModule&#45;&gt;TriStateButtonComponent </title>
<path fill="none" stroke="#000000" stroke-dasharray="5,2" d="M1364.7085,-179C1237.7649,-179 909.5067,-179 909.5067,-179 909.5067,-179 909.5067,-205.9909 909.5067,-205.9909"/>
<polygon fill="#000000" stroke="#000000" points="906.0067,-205.9909 909.5067,-215.9909 913.0067,-205.991 906.0067,-205.9909"/>
</g>
<!-- PropertyTableComponent  -->
<g id="node26" class="node">
<title>PropertyTableComponent </title>
<polygon fill="#fb8072" stroke="#000000" points="777.4138,-252 612.5862,-252 612.5862,-216 777.4138,-216 777.4138,-252"/>
<text text-anchor="middle" x="695" y="-229.8" font-family="Times,serif" font-size="14.00" fill="#000000">PropertyTableComponent </text>
</g>
<!-- SharedModule&#45;&gt;PropertyTableComponent  -->
<g id="edge25" class="edge">
<title>SharedModule&#45;&gt;PropertyTableComponent </title>
<path fill="none" stroke="#000000" stroke-dasharray="5,2" d="M1364.6498,-176C1207.9018,-176 731.6111,-176 731.6111,-176 731.6111,-176 731.6111,-205.9664 731.6111,-205.9664"/>
<polygon fill="#000000" stroke="#000000" points="728.1112,-205.9663 731.6111,-215.9664 735.1112,-205.9664 728.1112,-205.9663"/>
</g>
<!-- CommonModule -->
<g id="node10" class="node">
<title>CommonModule</title>
<polygon fill="#8dd3c7" stroke="#000000" points="1530.6681,-122 1527.6681,-126 1506.6681,-126 1503.6681,-122 1419.3319,-122 1419.3319,-86 1530.6681,-86 1530.6681,-122"/>
<text text-anchor="middle" x="1475" y="-99.8" font-family="Times,serif" font-size="14.00" fill="#000000">CommonModule</text>
</g>
<!-- CommonModule&#45;&gt;SharedModule -->
<g id="edge9" class="edge">
<title>CommonModule&#45;&gt;SharedModule</title>
<path fill="none" stroke="#000000" d="M1441.1887,-122.1061C1441.1887,-122.1061 1441.1887,-140.991 1441.1887,-140.991"/>
<polygon fill="#000000" stroke="#000000" points="1437.6887,-140.9909 1441.1887,-150.991 1444.6887,-140.991 1437.6887,-140.9909"/>
</g>
<!-- FormsModule -->
<g id="node11" class="node">
<title>FormsModule</title>
<polygon fill="#8dd3c7" stroke="#000000" points="1401.8288,-122 1398.8288,-126 1377.8288,-126 1374.8288,-122 1306.1712,-122 1306.1712,-86 1401.8288,-86 1401.8288,-122"/>
<text text-anchor="middle" x="1354" y="-99.8" font-family="Times,serif" font-size="14.00" fill="#000000">FormsModule</text>
</g>
<!-- FormsModule&#45;&gt;SharedModule -->
<g id="edge10" class="edge">
<title>FormsModule&#45;&gt;SharedModule</title>
<path fill="none" stroke="#000000" d="M1383.2265,-122.1061C1383.2265,-122.1061 1383.2265,-140.991 1383.2265,-140.991"/>
<polygon fill="#000000" stroke="#000000" points="1379.7266,-140.9909 1383.2265,-150.991 1386.7266,-140.991 1379.7266,-140.9909"/>
</g>
<!-- HttpModule -->
<g id="node12" class="node">
<title>HttpModule</title>
<polygon fill="#8dd3c7" stroke="#000000" points="1288.4387,-122 1285.4387,-126 1264.4387,-126 1261.4387,-122 1203.5613,-122 1203.5613,-86 1288.4387,-86 1288.4387,-122"/>
<text text-anchor="middle" x="1246" y="-99.8" font-family="Times,serif" font-size="14.00" fill="#000000">HttpModule</text>
</g>
<!-- HttpModule&#45;&gt;SharedModule -->
<g id="edge11" class="edge">
<title>HttpModule&#45;&gt;SharedModule</title>
<path fill="none" stroke="#000000" d="M1258.9722,-122.0511C1258.9722,-136.373 1258.9722,-154 1258.9722,-154 1258.9722,-154 1354.522,-154 1354.522,-154"/>
<polygon fill="#000000" stroke="#000000" points="1354.522,-157.5001 1364.522,-154 1354.522,-150.5001 1354.522,-157.5001"/>
</g>
<!-- ReactiveFormsModule -->
<g id="node13" class="node">
<title>ReactiveFormsModule</title>
<polygon fill="#8dd3c7" stroke="#000000" points="1186.3047,-122 1183.3047,-126 1162.3047,-126 1159.3047,-122 1041.6953,-122 1041.6953,-86 1186.3047,-86 1186.3047,-122"/>
<text text-anchor="middle" x="1114" y="-99.8" font-family="Times,serif" font-size="14.00" fill="#000000">ReactiveFormsModule</text>
</g>
<!-- ReactiveFormsModule&#45;&gt;SharedModule -->
<g id="edge12" class="edge">
<title>ReactiveFormsModule&#45;&gt;SharedModule</title>
<path fill="none" stroke="#000000" d="M1176.3899,-122.2396C1176.3899,-137.5706 1176.3899,-157 1176.3899,-157 1176.3899,-157 1354.767,-157 1354.767,-157"/>
<polygon fill="#000000" stroke="#000000" points="1354.7671,-160.5001 1364.767,-157 1354.767,-153.5001 1354.7671,-160.5001"/>
</g>
<!-- BusyModule.forRoot(args) -->
<g id="node14" class="node">
<title>BusyModule.forRoot(args)</title>
<polygon fill="#8dd3c7" stroke="#000000" points="1024.0204,-122 1021.0204,-126 1000.0204,-126 997.0204,-122 855.9796,-122 855.9796,-86 1024.0204,-86 1024.0204,-122"/>
<text text-anchor="middle" x="940" y="-99.8" font-family="Times,serif" font-size="14.00" fill="#000000">BusyModule.forRoot(args)</text>
</g>
<!-- BusyModule.forRoot(args)&#45;&gt;SharedModule -->
<g id="edge13" class="edge">
<title>BusyModule.forRoot(args)&#45;&gt;SharedModule</title>
<path fill="none" stroke="#000000" d="M1002.3314,-122.027C1002.3314,-138.3976 1002.3314,-160 1002.3314,-160 1002.3314,-160 1354.752,-160 1354.752,-160"/>
<polygon fill="#000000" stroke="#000000" points="1354.7521,-163.5001 1364.752,-160 1354.752,-156.5001 1354.7521,-163.5001"/>
</g>
<!-- ModalModule.forRoot() -->
<g id="node15" class="node">
<title>ModalModule.forRoot()</title>
<polygon fill="#8dd3c7" stroke="#000000" points="838.4699,-122 835.4699,-126 814.4699,-126 811.4699,-122 685.5301,-122 685.5301,-86 838.4699,-86 838.4699,-122"/>
<text text-anchor="middle" x="762" y="-99.8" font-family="Times,serif" font-size="14.00" fill="#000000">ModalModule.forRoot()</text>
</g>
<!-- ModalModule.forRoot()&#45;&gt;SharedModule -->
<g id="edge14" class="edge">
<title>ModalModule.forRoot()&#45;&gt;SharedModule</title>
<path fill="none" stroke="#000000" d="M816.6056,-122.0225C816.6056,-139.3734 816.6056,-163 816.6056,-163 816.6056,-163 1354.6045,-163 1354.6045,-163"/>
<polygon fill="#000000" stroke="#000000" points="1354.6045,-166.5001 1364.6045,-163 1354.6044,-159.5001 1354.6045,-166.5001"/>
</g>
<!-- ToastyModule.forRoot() -->
<g id="node16" class="node">
<title>ToastyModule.forRoot()</title>
<polygon fill="#8dd3c7" stroke="#000000" points="668.0218,-122 665.0218,-126 644.0218,-126 641.0218,-122 513.9782,-122 513.9782,-86 668.0218,-86 668.0218,-122"/>
<text text-anchor="middle" x="591" y="-99.8" font-family="Times,serif" font-size="14.00" fill="#000000">ToastyModule.forRoot()</text>
</g>
<!-- ToastyModule.forRoot()&#45;&gt;SharedModule -->
<g id="edge15" class="edge">
<title>ToastyModule.forRoot()&#45;&gt;SharedModule</title>
<path fill="none" stroke="#000000" d="M640.277,-122.302C640.277,-140.2699 640.277,-165 640.277,-165 640.277,-165 1354.7185,-165 1354.7185,-165"/>
<polygon fill="#000000" stroke="#000000" points="1354.7186,-168.5001 1364.7185,-165 1354.7185,-161.5001 1354.7186,-168.5001"/>
</g>
<!-- StompService -->
<g id="node27" class="node">
<title>StompService</title>
<ellipse fill="#fdb462" stroke="#000000" cx="425" cy="-104" rx="65.4266" ry="18"/>
<text text-anchor="middle" x="425" y="-99.8" font-family="Times,serif" font-size="14.00" fill="#000000">StompService</text>
</g>
<!-- StompService&#45;&gt;SharedModule -->
<g id="edge26" class="edge">
<title>StompService&#45;&gt;SharedModule</title>
<path fill="none" stroke="#000000" d="M425,-122.1686C425,-141.0898 425,-168 425,-168 425,-168 1354.617,-168 1354.617,-168"/>
<polygon fill="#000000" stroke="#000000" points="1354.617,-171.5001 1364.617,-168 1354.6169,-164.5001 1354.617,-171.5001"/>
</g>
<!-- SharedAppsService -->
<g id="node28" class="node">
<title>SharedAppsService</title>
<ellipse fill="#fdb462" stroke="#000000" cx="255" cy="-104" rx="87.3789" ry="18"/>
<text text-anchor="middle" x="255" y="-99.8" font-family="Times,serif" font-size="14.00" fill="#000000">SharedAppsService</text>
</g>
<!-- SharedAppsService&#45;&gt;SharedModule -->
<g id="edge27" class="edge">
<title>SharedAppsService&#45;&gt;SharedModule</title>
<path fill="none" stroke="#000000" d="M255,-122.308C255,-142.1455 255,-171 255,-171 255,-171 1354.57,-171 1354.57,-171"/>
<polygon fill="#000000" stroke="#000000" points="1354.57,-174.5001 1364.57,-171 1354.5699,-167.5001 1354.57,-174.5001"/>
</g>
<!-- ErrorHandler -->
<g id="node29" class="node">
<title>ErrorHandler</title>
<ellipse fill="#fdb462" stroke="#000000" cx="87" cy="-104" rx="62.518" ry="18"/>
<text text-anchor="middle" x="87" y="-99.8" font-family="Times,serif" font-size="14.00" fill="#000000">ErrorHandler</text>
</g>
<!-- ErrorHandler&#45;&gt;SharedModule -->
<g id="edge28" class="edge">
<title>ErrorHandler&#45;&gt;SharedModule</title>
<path fill="none" stroke="#000000" d="M87,-122.0267C87,-142.7672 87,-174 87,-174 87,-174 1354.4019,-174 1354.4019,-174"/>
<polygon fill="#000000" stroke="#000000" points="1354.402,-177.5001 1364.4019,-174 1354.4019,-170.5001 1354.402,-177.5001"/>
</g>
</g>
</svg>
