<?xml version="1.0" encoding="UTF-8" standalone="no"?>
<!DOCTYPE svg PUBLIC "-//W3C//DTD SVG 1.1//EN"
 "http://www.w3.org/Graphics/SVG/1.1/DTD/svg11.dtd">
<!-- Generated by graphviz version 2.40.1 (20161225.0304)
 -->
<!-- Title: dependencies Pages: 1 -->
<svg width="2212pt" height="211pt"
 viewBox="0.00 0.00 2212.00 211.00" xmlns="http://www.w3.org/2000/svg" xmlns:xlink="http://www.w3.org/1999/xlink">
<g id="graph0" class="graph" transform="scale(1 1) rotate(0) translate(4 207)">
<title>dependencies</title>
<polygon fill="#ffffff" stroke="transparent" points="-4,4 -4,-207 2208,-207 2208,4 -4,4"/>
<text text-anchor="start" x="1081.0091" y="-42.4" font-family="sans-serif" font-weight="bold" font-size="14.00" fill="#000000">Legend</text>
<polygon fill="#ffffb3" stroke="transparent" points="868,-10 868,-30 888,-30 888,-10 868,-10"/>
<text text-anchor="start" x="891.629" y="-15.4" font-family="sans-serif" font-size="14.00" fill="#000000"> &#160;Declarations</text>
<polygon fill="#8dd3c7" stroke="transparent" points="981,-10 981,-30 1001,-30 1001,-10 981,-10"/>
<text text-anchor="start" x="1004.7251" y="-15.4" font-family="sans-serif" font-size="14.00" fill="#000000"> &#160;Module</text>
<polygon fill="#80b1d3" stroke="transparent" points="1067,-10 1067,-30 1087,-30 1087,-10 1067,-10"/>
<text text-anchor="start" x="1090.7812" y="-15.4" font-family="sans-serif" font-size="14.00" fill="#000000"> &#160;Bootstrap</text>
<polygon fill="#fdb462" stroke="transparent" points="1164,-10 1164,-30 1184,-30 1184,-10 1164,-10"/>
<text text-anchor="start" x="1187.6732" y="-15.4" font-family="sans-serif" font-size="14.00" fill="#000000"> &#160;Providers</text>
<polygon fill="#fb8072" stroke="transparent" points="1260,-10 1260,-30 1280,-30 1280,-10 1260,-10"/>
<text text-anchor="start" x="1283.7258" y="-15.4" font-family="sans-serif" font-size="14.00" fill="#000000"> &#160;Exports</text>
<g id="clust1" class="cluster">
<title>cluster_StreamsModule</title>
<polygon fill="none" stroke="#000000" stroke-dasharray="1,5" points="8,-70 8,-195 2196,-195 2196,-70 8,-70"/>
</g>
<g id="clust2" class="cluster">
<title>cluster_StreamsModule_declarations</title>
<polygon fill="none" stroke="#000000" points="1310,-78 1310,-130 2188,-130 2188,-78 1310,-78"/>
</g>
<g id="clust8" class="cluster">
<title>cluster_StreamsModule_imports</title>
<polygon fill="none" stroke="#000000" points="182,-78 182,-130 1302,-130 1302,-78 182,-78"/>
</g>
<g id="clust11" class="cluster">
<title>cluster_StreamsModule_providers</title>
<polygon fill="none" stroke="#000000" points="16,-78 16,-130 174,-130 174,-78 16,-78"/>
</g>
<!-- StreamsComponent -->
<g id="node1" class="node">
<title>StreamsComponent</title>
<polygon fill="#ffffb3" stroke="#000000" points="2180.4313,-122 2053.5687,-122 2053.5687,-86 2180.4313,-86 2180.4313,-122"/>
<text text-anchor="middle" x="2117" y="-99.8" font-family="Times,serif" font-size="14.00" fill="#000000">StreamsComponent</text>
</g>
<!-- StreamsModule -->
<g id="node6" class="node">
<title>StreamsModule</title>
<polygon fill="#8dd3c7" stroke="#000000" points="1129.1486,-187 1126.1486,-191 1105.1486,-191 1102.1486,-187 1024.8514,-187 1024.8514,-151 1129.1486,-151 1129.1486,-187"/>
<text text-anchor="middle" x="1077" y="-164.8" font-family="Times,serif" font-size="14.00" fill="#000000">StreamsModule</text>
</g>
<!-- StreamsComponent&#45;&gt;StreamsModule -->
<g id="edge1" class="edge">
<title>StreamsComponent&#45;&gt;StreamsModule</title>
<path fill="none" stroke="#000000" d="M2117,-122.0908C2117,-145.1328 2117,-182 2117,-182 2117,-182 1139.2865,-182 1139.2865,-182"/>
<polygon fill="#000000" stroke="#000000" points="1139.2865,-178.5001 1129.2865,-182 1139.2865,-185.5001 1139.2865,-178.5001"/>
</g>
<!-- StreamCreateComponent -->
<g id="node2" class="node">
<title>StreamCreateComponent</title>
<polygon fill="#ffffb3" stroke="#000000" points="2035.5183,-122 1878.4817,-122 1878.4817,-86 2035.5183,-86 2035.5183,-122"/>
<text text-anchor="middle" x="1957" y="-99.8" font-family="Times,serif" font-size="14.00" fill="#000000">StreamCreateComponent</text>
</g>
<!-- StreamCreateComponent&#45;&gt;StreamsModule -->
<g id="edge2" class="edge">
<title>StreamCreateComponent&#45;&gt;StreamsModule</title>
<path fill="none" stroke="#000000" d="M1957,-122.0449C1957,-143.6623 1957,-177 1957,-177 1957,-177 1139.4126,-177 1139.4126,-177"/>
<polygon fill="#000000" stroke="#000000" points="1139.4127,-173.5001 1129.4126,-177 1139.4126,-180.5001 1139.4127,-173.5001"/>
</g>
<!-- StreamDefinitionsComponent -->
<g id="node3" class="node">
<title>StreamDefinitionsComponent</title>
<polygon fill="#ffffb3" stroke="#000000" points="1859.9748,-122 1676.0252,-122 1676.0252,-86 1859.9748,-86 1859.9748,-122"/>
<text text-anchor="middle" x="1768" y="-99.8" font-family="Times,serif" font-size="14.00" fill="#000000">StreamDefinitionsComponent</text>
</g>
<!-- StreamDefinitionsComponent&#45;&gt;StreamsModule -->
<g id="edge3" class="edge">
<title>StreamDefinitionsComponent&#45;&gt;StreamsModule</title>
<path fill="none" stroke="#000000" d="M1768,-122.2228C1768,-142.3652 1768,-172 1768,-172 1768,-172 1139.2206,-172 1139.2206,-172"/>
<polygon fill="#000000" stroke="#000000" points="1139.2206,-168.5001 1129.2206,-172 1139.2205,-175.5001 1139.2206,-168.5001"/>
</g>
<!-- StreamDetailsComponent -->
<g id="node4" class="node">
<title>StreamDetailsComponent</title>
<polygon fill="#ffffb3" stroke="#000000" points="1658.1386,-122 1497.8614,-122 1497.8614,-86 1658.1386,-86 1658.1386,-122"/>
<text text-anchor="middle" x="1578" y="-99.8" font-family="Times,serif" font-size="14.00" fill="#000000">StreamDetailsComponent</text>
</g>
<!-- StreamDetailsComponent&#45;&gt;StreamsModule -->
<g id="edge4" class="edge">
<title>StreamDetailsComponent&#45;&gt;StreamsModule</title>
<path fill="none" stroke="#000000" d="M1578,-122.2222C1578,-140.8285 1578,-167 1578,-167 1578,-167 1139.198,-167 1139.198,-167"/>
<polygon fill="#000000" stroke="#000000" points="1139.198,-163.5001 1129.198,-167 1139.1979,-170.5001 1139.198,-163.5001"/>
</g>
<!-- StreamDeployComponent -->
<g id="node5" class="node">
<title>StreamDeployComponent</title>
<polygon fill="#ffffb3" stroke="#000000" points="1480.1979,-122 1317.8021,-122 1317.8021,-86 1480.1979,-86 1480.1979,-122"/>
<text text-anchor="middle" x="1399" y="-99.8" font-family="Times,serif" font-size="14.00" fill="#000000">StreamDeployComponent</text>
</g>
<!-- StreamDeployComponent&#45;&gt;StreamsModule -->
<g id="edge5" class="edge">
<title>StreamDeployComponent&#45;&gt;StreamsModule</title>
<path fill="none" stroke="#000000" d="M1399,-122.0336C1399,-139.0597 1399,-162 1399,-162 1399,-162 1139.4515,-162 1139.4515,-162"/>
<polygon fill="#000000" stroke="#000000" points="1139.4515,-158.5001 1129.4515,-162 1139.4515,-165.5001 1139.4515,-158.5001"/>
</g>
<!-- StreamsRoutingModule -->
<g id="node7" class="node">
<title>StreamsRoutingModule</title>
<polygon fill="#8dd3c7" stroke="#000000" points="1293.766,-122 1290.766,-126 1269.766,-126 1266.766,-122 1144.234,-122 1144.234,-86 1293.766,-86 1293.766,-122"/>
<text text-anchor="middle" x="1219" y="-99.8" font-family="Times,serif" font-size="14.00" fill="#000000">StreamsRoutingModule</text>
</g>
<!-- StreamsRoutingModule&#45;&gt;StreamsModule -->
<g id="edge6" class="edge">
<title>StreamsRoutingModule&#45;&gt;StreamsModule</title>
<path fill="none" stroke="#000000" d="M1219,-122.2396C1219,-137.5706 1219,-157 1219,-157 1219,-157 1139.4721,-157 1139.4721,-157"/>
<polygon fill="#000000" stroke="#000000" points="1139.4721,-153.5001 1129.4721,-157 1139.4721,-160.5001 1139.4721,-153.5001"/>
</g>
<!-- SharedModule -->
<g id="node8" class="node">
<title>SharedModule</title>
<polygon fill="#8dd3c7" stroke="#000000" points="1126.4231,-122 1123.4231,-126 1102.4231,-126 1099.4231,-122 1027.5769,-122 1027.5769,-86 1126.4231,-86 1126.4231,-122"/>
<text text-anchor="middle" x="1077" y="-99.8" font-family="Times,serif" font-size="14.00" fill="#000000">SharedModule</text>
</g>
<!-- SharedModule&#45;&gt;StreamsModule -->
<g id="edge7" class="edge">
<title>SharedModule&#45;&gt;StreamsModule</title>
<path fill="none" stroke="#000000" d="M1077,-122.1061C1077,-122.1061 1077,-140.991 1077,-140.991"/>
<polygon fill="#000000" stroke="#000000" points="1073.5001,-140.9909 1077,-150.991 1080.5001,-140.991 1073.5001,-140.9909"/>
</g>
<!-- NgxPaginationModule -->
<g id="node9" class="node">
<title>NgxPaginationModule</title>
<polygon fill="#8dd3c7" stroke="#000000" points="1009.5407,-122 1006.5407,-126 985.5407,-126 982.5407,-122 866.4593,-122 866.4593,-86 1009.5407,-86 1009.5407,-122"/>
<text text-anchor="middle" x="938" y="-99.8" font-family="Times,serif" font-size="14.00" fill="#000000">NgxPaginationModule</text>
</g>
<!-- NgxPaginationModule&#45;&gt;StreamsModule -->
<g id="edge8" class="edge">
<title>NgxPaginationModule&#45;&gt;StreamsModule</title>
<path fill="none" stroke="#000000" d="M938,-122.2396C938,-137.5706 938,-157 938,-157 938,-157 1014.8461,-157 1014.8461,-157"/>
<polygon fill="#000000" stroke="#000000" points="1014.8461,-160.5001 1024.8461,-157 1014.846,-153.5001 1014.8461,-160.5001"/>
</g>
<!-- ReactiveFormsModule -->
<g id="node10" class="node">
<title>ReactiveFormsModule</title>
<polygon fill="#8dd3c7" stroke="#000000" points="848.3047,-122 845.3047,-126 824.3047,-126 821.3047,-122 703.6953,-122 703.6953,-86 848.3047,-86 848.3047,-122"/>
<text text-anchor="middle" x="776" y="-99.8" font-family="Times,serif" font-size="14.00" fill="#000000">ReactiveFormsModule</text>
</g>
<!-- ReactiveFormsModule&#45;&gt;StreamsModule -->
<g id="edge9" class="edge">
<title>ReactiveFormsModule&#45;&gt;StreamsModule</title>
<path fill="none" stroke="#000000" d="M776,-122.0336C776,-139.0597 776,-162 776,-162 776,-162 1014.5698,-162 1014.5698,-162"/>
<polygon fill="#000000" stroke="#000000" points="1014.5698,-165.5001 1024.5698,-162 1014.5698,-158.5001 1014.5698,-165.5001"/>
</g>
<!-- AlertModule.forRoot() -->
<g id="node11" class="node">
<title>AlertModule.forRoot()</title>
<polygon fill="#8dd3c7" stroke="#000000" points="686.1827,-122 683.1827,-126 662.1827,-126 659.1827,-122 541.8173,-122 541.8173,-86 686.1827,-86 686.1827,-122"/>
<text text-anchor="middle" x="614" y="-99.8" font-family="Times,serif" font-size="14.00" fill="#000000">AlertModule.forRoot()</text>
</g>
<!-- AlertModule.forRoot()&#45;&gt;StreamsModule -->
<g id="edge10" class="edge">
<title>AlertModule.forRoot()&#45;&gt;StreamsModule</title>
<path fill="none" stroke="#000000" d="M614,-122.2222C614,-140.8285 614,-167 614,-167 614,-167 1014.788,-167 1014.788,-167"/>
<polygon fill="#000000" stroke="#000000" points="1014.7881,-170.5001 1024.788,-167 1014.788,-163.5001 1014.7881,-170.5001"/>
</g>
<!-- ModalModule.forRoot() -->
<g id="node12" class="node">
<title>ModalModule.forRoot()</title>
<polygon fill="#8dd3c7" stroke="#000000" points="523.4699,-122 520.4699,-126 499.4699,-126 496.4699,-122 370.5301,-122 370.5301,-86 523.4699,-86 523.4699,-122"/>
<text text-anchor="middle" x="447" y="-99.8" font-family="Times,serif" font-size="14.00" fill="#000000">ModalModule.forRoot()</text>
</g>
<!-- ModalModule.forRoot()&#45;&gt;StreamsModule -->
<g id="edge11" class="edge">
<title>ModalModule.forRoot()&#45;&gt;StreamsModule</title>
<path fill="none" stroke="#000000" d="M447,-122.2228C447,-142.3652 447,-172 447,-172 447,-172 1014.6396,-172 1014.6396,-172"/>
<polygon fill="#000000" stroke="#000000" points="1014.6396,-175.5001 1024.6396,-172 1014.6396,-168.5001 1014.6396,-175.5001"/>
</g>
<!-- PopoverModule.forRoot() -->
<g id="node13" class="node">
<title>PopoverModule.forRoot()</title>
<polygon fill="#8dd3c7" stroke="#000000" points="352.0777,-122 349.0777,-126 328.0777,-126 325.0777,-122 189.9223,-122 189.9223,-86 352.0777,-86 352.0777,-122"/>
<text text-anchor="middle" x="271" y="-99.8" font-family="Times,serif" font-size="14.00" fill="#000000">PopoverModule.forRoot()</text>
</g>
<!-- PopoverModule.forRoot()&#45;&gt;StreamsModule -->
<g id="edge12" class="edge">
<title>PopoverModule.forRoot()&#45;&gt;StreamsModule</title>
<path fill="none" stroke="#000000" d="M271,-122.0449C271,-143.6623 271,-177 271,-177 271,-177 1014.7371,-177 1014.7371,-177"/>
<polygon fill="#000000" stroke="#000000" points="1014.7372,-180.5001 1024.7371,-177 1014.7371,-173.5001 1014.7372,-180.5001"/>
</g>
<!-- StreamsService -->
<g id="node14" class="node">
<title>StreamsService</title>
<ellipse fill="#fdb462" stroke="#000000" cx="95" cy="-104" rx="71.1998" ry="18"/>
<text text-anchor="middle" x="95" y="-99.8" font-family="Times,serif" font-size="14.00" fill="#000000">StreamsService</text>
</g>
<!-- StreamsService&#45;&gt;StreamsModule -->
<g id="edge13" class="edge">
<title>StreamsService&#45;&gt;StreamsModule</title>
<path fill="none" stroke="#000000" d="M95,-122.0908C95,-145.1328 95,-182 95,-182 95,-182 1014.5506,-182 1014.5506,-182"/>
<polygon fill="#000000" stroke="#000000" points="1014.5506,-185.5001 1024.5506,-182 1014.5506,-178.5001 1014.5506,-185.5001"/>
</g>
</g>
</svg>
