<?xml version="1.0" encoding="UTF-8" standalone="no"?>
<!DOCTYPE svg PUBLIC "-//W3C//DTD SVG 1.1//EN"
 "http://www.w3.org/Graphics/SVG/1.1/DTD/svg11.dtd">
<!-- Generated by graphviz version 2.40.1 (20161225.0304)
 -->
<!-- Title: dependencies Pages: 1 -->
<svg width="2999pt" height="211pt"
 viewBox="0.00 0.00 2999.00 211.00" xmlns="http://www.w3.org/2000/svg" xmlns:xlink="http://www.w3.org/1999/xlink">
<g id="graph0" class="graph" transform="scale(1 1) rotate(0) translate(4 207)">
<title>dependencies</title>
<polygon fill="#ffffff" stroke="transparent" points="-4,4 -4,-207 2995,-207 2995,4 -4,4"/>
<text text-anchor="start" x="1474.5091" y="-42.4" font-family="sans-serif" font-weight="bold" font-size="14.00" fill="#000000">Legend</text>
<polygon fill="#ffffb3" stroke="transparent" points="1261.5,-10 1261.5,-30 1281.5,-30 1281.5,-10 1261.5,-10"/>
<text text-anchor="start" x="1285.129" y="-15.4" font-family="sans-serif" font-size="14.00" fill="#000000"> &#160;Declarations</text>
<polygon fill="#8dd3c7" stroke="transparent" points="1374.5,-10 1374.5,-30 1394.5,-30 1394.5,-10 1374.5,-10"/>
<text text-anchor="start" x="1398.2251" y="-15.4" font-family="sans-serif" font-size="14.00" fill="#000000"> &#160;Module</text>
<polygon fill="#80b1d3" stroke="transparent" points="1460.5,-10 1460.5,-30 1480.5,-30 1480.5,-10 1460.5,-10"/>
<text text-anchor="start" x="1484.2812" y="-15.4" font-family="sans-serif" font-size="14.00" fill="#000000"> &#160;Bootstrap</text>
<polygon fill="#fdb462" stroke="transparent" points="1557.5,-10 1557.5,-30 1577.5,-30 1577.5,-10 1557.5,-10"/>
<text text-anchor="start" x="1581.1732" y="-15.4" font-family="sans-serif" font-size="14.00" fill="#000000"> &#160;Providers</text>
<polygon fill="#fb8072" stroke="transparent" points="1653.5,-10 1653.5,-30 1673.5,-30 1673.5,-10 1653.5,-10"/>
<text text-anchor="start" x="1677.2258" y="-15.4" font-family="sans-serif" font-size="14.00" fill="#000000"> &#160;Exports</text>
<g id="clust1" class="cluster">
<title>cluster_TasksModule</title>
<polygon fill="none" stroke="#000000" stroke-dasharray="1,5" points="8,-70 8,-195 2983,-195 2983,-70 8,-70"/>
</g>
<g id="clust2" class="cluster">
<title>cluster_TasksModule_declarations</title>
<polygon fill="none" stroke="#000000" points="1119,-78 1119,-130 2975,-130 2975,-78 1119,-78"/>
</g>
<g id="clust13" class="cluster">
<title>cluster_TasksModule_imports</title>
<polygon fill="none" stroke="#000000" points="166,-78 166,-130 1111,-130 1111,-78 166,-78"/>
</g>
<g id="clust16" class="cluster">
<title>cluster_TasksModule_providers</title>
<polygon fill="none" stroke="#000000" points="16,-78 16,-130 158,-130 158,-78 16,-78"/>
</g>
<!-- TasksComponent -->
<g id="node1" class="node">
<title>TasksComponent</title>
<polygon fill="#ffffb3" stroke="#000000" points="2966.9888,-122 2853.0112,-122 2853.0112,-86 2966.9888,-86 2966.9888,-122"/>
<text text-anchor="middle" x="2910" y="-99.8" font-family="Times,serif" font-size="14.00" fill="#000000">TasksComponent</text>
</g>
<!-- TasksModule -->
<g id="node11" class="node">
<title>TasksModule</title>
<polygon fill="#8dd3c7" stroke="#000000" points="1428.2064,-187 1425.2064,-191 1404.2064,-191 1401.2064,-187 1335.7936,-187 1335.7936,-151 1428.2064,-151 1428.2064,-187"/>
<text text-anchor="middle" x="1382" y="-164.8" font-family="Times,serif" font-size="14.00" fill="#000000">TasksModule</text>
</g>
<!-- TasksComponent&#45;&gt;TasksModule -->
<g id="edge1" class="edge">
<title>TasksComponent&#45;&gt;TasksModule</title>
<path fill="none" stroke="#000000" d="M2910,-122.3228C2910,-145.6602 2910,-183 2910,-183 2910,-183 1438.1463,-183 1438.1463,-183"/>
<polygon fill="#000000" stroke="#000000" points="1438.1463,-179.5001 1428.1463,-183 1438.1463,-186.5001 1438.1463,-179.5001"/>
</g>
<!-- TaskAppsComponent -->
<g id="node2" class="node">
<title>TaskAppsComponent</title>
<polygon fill="#ffffb3" stroke="#000000" points="2835.0954,-122 2696.9046,-122 2696.9046,-86 2835.0954,-86 2835.0954,-122"/>
<text text-anchor="middle" x="2766" y="-99.8" font-family="Times,serif" font-size="14.00" fill="#000000">TaskAppsComponent</text>
</g>
<!-- TaskAppsComponent&#45;&gt;TasksModule -->
<g id="edge2" class="edge">
<title>TaskAppsComponent&#45;&gt;TasksModule</title>
<path fill="none" stroke="#000000" d="M2766,-122.1554C2766,-144.3519 2766,-179 2766,-179 2766,-179 1438.4439,-179 1438.4439,-179"/>
<polygon fill="#000000" stroke="#000000" points="1438.4439,-175.5001 1428.4439,-179 1438.4439,-182.5001 1438.4439,-175.5001"/>
</g>
<!-- TaskDefinitionsComponent -->
<g id="node3" class="node">
<title>TaskDefinitionsComponent</title>
<polygon fill="#ffffb3" stroke="#000000" points="2678.5336,-122 2507.4664,-122 2507.4664,-86 2678.5336,-86 2678.5336,-122"/>
<text text-anchor="middle" x="2593" y="-99.8" font-family="Times,serif" font-size="14.00" fill="#000000">TaskDefinitionsComponent</text>
</g>
<!-- TaskDefinitionsComponent&#45;&gt;TasksModule -->
<g id="edge3" class="edge">
<title>TaskDefinitionsComponent&#45;&gt;TasksModule</title>
<path fill="none" stroke="#000000" d="M2593,-122.2843C2593,-143.3211 2593,-175 2593,-175 2593,-175 1438.3616,-175 1438.3616,-175"/>
<polygon fill="#000000" stroke="#000000" points="1438.3616,-171.5001 1428.3616,-175 1438.3615,-178.5001 1438.3616,-171.5001"/>
</g>
<!-- TaskCreateComposedTaskComponent -->
<g id="node4" class="node">
<title>TaskCreateComposedTaskComponent</title>
<polygon fill="#ffffb3" stroke="#000000" points="2489.1741,-122 2256.8259,-122 2256.8259,-86 2489.1741,-86 2489.1741,-122"/>
<text text-anchor="middle" x="2373" y="-99.8" font-family="Times,serif" font-size="14.00" fill="#000000">TaskCreateComposedTaskComponent</text>
</g>
<!-- TaskCreateComposedTaskComponent&#45;&gt;TasksModule -->
<g id="edge4" class="edge">
<title>TaskCreateComposedTaskComponent&#45;&gt;TasksModule</title>
<path fill="none" stroke="#000000" d="M2373,-122.308C2373,-142.1455 2373,-171 2373,-171 2373,-171 1438.1391,-171 1438.1391,-171"/>
<polygon fill="#000000" stroke="#000000" points="1438.1391,-167.5001 1428.1391,-171 1438.1391,-174.5001 1438.1391,-167.5001"/>
</g>
<!-- TaskExecutionsComponent -->
<g id="node5" class="node">
<title>TaskExecutionsComponent</title>
<polygon fill="#ffffb3" stroke="#000000" points="2239.252,-122 2068.748,-122 2068.748,-86 2239.252,-86 2239.252,-122"/>
<text text-anchor="middle" x="2154" y="-99.8" font-family="Times,serif" font-size="14.00" fill="#000000">TaskExecutionsComponent</text>
</g>
<!-- TaskExecutionsComponent&#45;&gt;TasksModule -->
<g id="edge5" class="edge">
<title>TaskExecutionsComponent&#45;&gt;TasksModule</title>
<path fill="none" stroke="#000000" d="M2154,-122.2222C2154,-140.8285 2154,-167 2154,-167 2154,-167 1438.2665,-167 1438.2665,-167"/>
<polygon fill="#000000" stroke="#000000" points="1438.2665,-163.5001 1428.2665,-167 1438.2664,-170.5001 1438.2665,-163.5001"/>
</g>
<!-- TaskExecutionsDetailsComponent -->
<g id="node6" class="node">
<title>TaskExecutionsDetailsComponent</title>
<polygon fill="#ffffb3" stroke="#000000" points="2050.4044,-122 1839.5956,-122 1839.5956,-86 2050.4044,-86 2050.4044,-122"/>
<text text-anchor="middle" x="1945" y="-99.8" font-family="Times,serif" font-size="14.00" fill="#000000">TaskExecutionsDetailsComponent</text>
</g>
<!-- TaskExecutionsDetailsComponent&#45;&gt;TasksModule -->
<g id="edge6" class="edge">
<title>TaskExecutionsDetailsComponent&#45;&gt;TasksModule</title>
<path fill="none" stroke="#000000" d="M1945,-122.0225C1945,-139.3734 1945,-163 1945,-163 1945,-163 1438.5516,-163 1438.5516,-163"/>
<polygon fill="#000000" stroke="#000000" points="1438.5517,-159.5001 1428.5516,-163 1438.5516,-166.5001 1438.5517,-159.5001"/>
</g>
<!-- TaskAppDetailsComponent -->
<g id="node7" class="node">
<title>TaskAppDetailsComponent</title>
<polygon fill="#ffffb3" stroke="#000000" points="1822.3033,-122 1649.6967,-122 1649.6967,-86 1822.3033,-86 1822.3033,-122"/>
<text text-anchor="middle" x="1736" y="-99.8" font-family="Times,serif" font-size="14.00" fill="#000000">TaskAppDetailsComponent</text>
</g>
<!-- TaskAppDetailsComponent&#45;&gt;TasksModule -->
<g id="edge7" class="edge">
<title>TaskAppDetailsComponent&#45;&gt;TasksModule</title>
<path fill="none" stroke="#000000" d="M1736,-122.0091C1736,-138.0494 1736,-159 1736,-159 1736,-159 1438.2793,-159 1438.2793,-159"/>
<polygon fill="#000000" stroke="#000000" points="1438.2794,-155.5001 1428.2793,-159 1438.2793,-162.5001 1438.2794,-155.5001"/>
</g>
<!-- TaskCreateComponent -->
<g id="node8" class="node">
<title>TaskCreateComponent</title>
<polygon fill="#ffffb3" stroke="#000000" points="1631.5758,-122 1486.4242,-122 1486.4242,-86 1631.5758,-86 1631.5758,-122"/>
<text text-anchor="middle" x="1559" y="-99.8" font-family="Times,serif" font-size="14.00" fill="#000000">TaskCreateComponent</text>
</g>
<!-- TaskCreateComponent&#45;&gt;TasksModule -->
<g id="edge8" class="edge">
<title>TaskCreateComponent&#45;&gt;TasksModule</title>
<path fill="none" stroke="#000000" d="M1559,-122.1243C1559,-136.7832 1559,-155 1559,-155 1559,-155 1438.5047,-155 1438.5047,-155"/>
<polygon fill="#000000" stroke="#000000" points="1438.5047,-151.5001 1428.5047,-155 1438.5046,-158.5001 1438.5047,-151.5001"/>
</g>
<!-- TaskBulkDefineComponent -->
<g id="node9" class="node">
<title>TaskBulkDefineComponent</title>
<polygon fill="#ffffb3" stroke="#000000" points="1468.8585,-122 1295.1415,-122 1295.1415,-86 1468.8585,-86 1468.8585,-122"/>
<text text-anchor="middle" x="1382" y="-99.8" font-family="Times,serif" font-size="14.00" fill="#000000">TaskBulkDefineComponent</text>
</g>
<!-- TaskBulkDefineComponent&#45;&gt;TasksModule -->
<g id="edge9" class="edge">
<title>TaskBulkDefineComponent&#45;&gt;TasksModule</title>
<path fill="none" stroke="#000000" d="M1382,-122.1061C1382,-122.1061 1382,-140.991 1382,-140.991"/>
<polygon fill="#000000" stroke="#000000" points="1378.5001,-140.9909 1382,-150.991 1385.5001,-140.991 1378.5001,-140.9909"/>
</g>
<!-- TaskLaunchComponent -->
<g id="node10" class="node">
<title>TaskLaunchComponent</title>
<polygon fill="#ffffb3" stroke="#000000" points="1277.0267,-122 1126.9733,-122 1126.9733,-86 1277.0267,-86 1277.0267,-122"/>
<text text-anchor="middle" x="1202" y="-99.8" font-family="Times,serif" font-size="14.00" fill="#000000">TaskLaunchComponent</text>
</g>
<!-- TaskLaunchComponent&#45;&gt;TasksModule -->
<g id="edge10" class="edge">
<title>TaskLaunchComponent&#45;&gt;TasksModule</title>
<path fill="none" stroke="#000000" d="M1202,-122.1243C1202,-136.7832 1202,-155 1202,-155 1202,-155 1325.6455,-155 1325.6455,-155"/>
<polygon fill="#000000" stroke="#000000" points="1325.6456,-158.5001 1335.6455,-155 1325.6455,-151.5001 1325.6456,-158.5001"/>
</g>
<!-- TasksRoutingModule -->
<g id="node12" class="node">
<title>TasksRoutingModule</title>
<polygon fill="#8dd3c7" stroke="#000000" points="1102.8244,-122 1099.8244,-126 1078.8244,-126 1075.8244,-122 965.1756,-122 965.1756,-86 1102.8244,-86 1102.8244,-122"/>
<text text-anchor="middle" x="1034" y="-99.8" font-family="Times,serif" font-size="14.00" fill="#000000">TasksRoutingModule</text>
</g>
<!-- TasksRoutingModule&#45;&gt;TasksModule -->
<g id="edge11" class="edge">
<title>TasksRoutingModule&#45;&gt;TasksModule</title>
<path fill="none" stroke="#000000" d="M1034,-122.0091C1034,-138.0494 1034,-159 1034,-159 1034,-159 1325.7883,-159 1325.7883,-159"/>
<polygon fill="#000000" stroke="#000000" points="1325.7883,-162.5001 1335.7883,-159 1325.7883,-155.5001 1325.7883,-162.5001"/>
</g>
<!-- SharedModule -->
<g id="node13" class="node">
<title>SharedModule</title>
<polygon fill="#8dd3c7" stroke="#000000" points="947.4231,-122 944.4231,-126 923.4231,-126 920.4231,-122 848.5769,-122 848.5769,-86 947.4231,-86 947.4231,-122"/>
<text text-anchor="middle" x="898" y="-99.8" font-family="Times,serif" font-size="14.00" fill="#000000">SharedModule</text>
</g>
<!-- SharedModule&#45;&gt;TasksModule -->
<g id="edge12" class="edge">
<title>SharedModule&#45;&gt;TasksModule</title>
<path fill="none" stroke="#000000" d="M898,-122.0225C898,-139.3734 898,-163 898,-163 898,-163 1325.592,-163 1325.592,-163"/>
<polygon fill="#000000" stroke="#000000" points="1325.5921,-166.5001 1335.592,-163 1325.592,-159.5001 1325.5921,-166.5001"/>
</g>
<!-- NgxPaginationModule -->
<g id="node14" class="node">
<title>NgxPaginationModule</title>
<polygon fill="#8dd3c7" stroke="#000000" points="830.5407,-122 827.5407,-126 806.5407,-126 803.5407,-122 687.4593,-122 687.4593,-86 830.5407,-86 830.5407,-122"/>
<text text-anchor="middle" x="759" y="-99.8" font-family="Times,serif" font-size="14.00" fill="#000000">NgxPaginationModule</text>
</g>
<!-- NgxPaginationModule&#45;&gt;TasksModule -->
<g id="edge13" class="edge">
<title>NgxPaginationModule&#45;&gt;TasksModule</title>
<path fill="none" stroke="#000000" d="M759,-122.2222C759,-140.8285 759,-167 759,-167 759,-167 1325.6827,-167 1325.6827,-167"/>
<polygon fill="#000000" stroke="#000000" points="1325.6828,-170.5001 1335.6827,-167 1325.6827,-163.5001 1325.6828,-170.5001"/>
</g>
<!-- ReactiveFormsModule -->
<g id="node15" class="node">
<title>ReactiveFormsModule</title>
<polygon fill="#8dd3c7" stroke="#000000" points="669.3047,-122 666.3047,-126 645.3047,-126 642.3047,-122 524.6953,-122 524.6953,-86 669.3047,-86 669.3047,-122"/>
<text text-anchor="middle" x="597" y="-99.8" font-family="Times,serif" font-size="14.00" fill="#000000">ReactiveFormsModule</text>
</g>
<!-- ReactiveFormsModule&#45;&gt;TasksModule -->
<g id="edge14" class="edge">
<title>ReactiveFormsModule&#45;&gt;TasksModule</title>
<path fill="none" stroke="#000000" d="M597,-122.308C597,-142.1455 597,-171 597,-171 597,-171 1325.8254,-171 1325.8254,-171"/>
<polygon fill="#000000" stroke="#000000" points="1325.8254,-174.5001 1335.8254,-171 1325.8253,-167.5001 1325.8254,-174.5001"/>
</g>
<!-- ModalModule.forRoot() -->
<g id="node16" class="node">
<title>ModalModule.forRoot()</title>
<polygon fill="#8dd3c7" stroke="#000000" points="507.4699,-122 504.4699,-126 483.4699,-126 480.4699,-122 354.5301,-122 354.5301,-86 507.4699,-86 507.4699,-122"/>
<text text-anchor="middle" x="431" y="-99.8" font-family="Times,serif" font-size="14.00" fill="#000000">ModalModule.forRoot()</text>
</g>
<!-- ModalModule.forRoot()&#45;&gt;TasksModule -->
<g id="edge15" class="edge">
<title>ModalModule.forRoot()&#45;&gt;TasksModule</title>
<path fill="none" stroke="#000000" d="M431,-122.2843C431,-143.3211 431,-175 431,-175 431,-175 1325.8099,-175 1325.8099,-175"/>
<polygon fill="#000000" stroke="#000000" points="1325.8099,-178.5001 1335.8099,-175 1325.8099,-171.5001 1325.8099,-178.5001"/>
</g>
<!-- PopoverModule.forRoot() -->
<g id="node17" class="node">
<title>PopoverModule.forRoot()</title>
<polygon fill="#8dd3c7" stroke="#000000" points="336.0777,-122 333.0777,-126 312.0777,-126 309.0777,-122 173.9223,-122 173.9223,-86 336.0777,-86 336.0777,-122"/>
<text text-anchor="middle" x="255" y="-99.8" font-family="Times,serif" font-size="14.00" fill="#000000">PopoverModule.forRoot()</text>
</g>
<!-- PopoverModule.forRoot()&#45;&gt;TasksModule -->
<g id="edge16" class="edge">
<title>PopoverModule.forRoot()&#45;&gt;TasksModule</title>
<path fill="none" stroke="#000000" d="M255,-122.1554C255,-144.3519 255,-179 255,-179 255,-179 1325.7192,-179 1325.7192,-179"/>
<polygon fill="#000000" stroke="#000000" points="1325.7192,-182.5001 1335.7192,-179 1325.7191,-175.5001 1325.7192,-182.5001"/>
</g>
<!-- TasksService -->
<g id="node18" class="node">
<title>TasksService</title>
<ellipse fill="#fdb462" stroke="#000000" cx="87" cy="-104" rx="62.5354" ry="18"/>
<text text-anchor="middle" x="87" y="-99.8" font-family="Times,serif" font-size="14.00" fill="#000000">TasksService</text>
</g>
<!-- TasksService&#45;&gt;TasksModule -->
<g id="edge17" class="edge">
<title>TasksService&#45;&gt;TasksModule</title>
<path fill="none" stroke="#000000" d="M87,-122.3228C87,-145.6602 87,-183 87,-183 87,-183 1325.5285,-183 1325.5285,-183"/>
<polygon fill="#000000" stroke="#000000" points="1325.5285,-186.5001 1335.5285,-183 1325.5284,-179.5001 1325.5285,-186.5001"/>
</g>
</g>
</svg>
