<?xml version="1.0" encoding="UTF-8" standalone="no"?>
<!DOCTYPE svg PUBLIC "-//W3C//DTD SVG 1.1//EN"
 "http://www.w3.org/Graphics/SVG/1.1/DTD/svg11.dtd">
<!-- Generated by graphviz version 2.40.1 (20161225.0304)
 -->
<!-- Title: dependencies Pages: 1 -->
<svg width="1588pt" height="284pt"
 viewBox="0.00 0.00 1588.00 284.00" xmlns="http://www.w3.org/2000/svg" xmlns:xlink="http://www.w3.org/1999/xlink">
<g id="graph0" class="graph" transform="scale(1 1) rotate(0) translate(4 280)">
<title>dependencies</title>
<polygon fill="#ffffff" stroke="transparent" points="-4,4 -4,-280 1584,-280 1584,4 -4,4"/>
<text text-anchor="start" x="769.0091" y="-42.4" font-family="sans-serif" font-weight="bold" font-size="14.00" fill="#000000">Legend</text>
<polygon fill="#ffffb3" stroke="transparent" points="556,-10 556,-30 576,-30 576,-10 556,-10"/>
<text text-anchor="start" x="579.629" y="-15.4" font-family="sans-serif" font-size="14.00" fill="#000000"> &#160;Declarations</text>
<polygon fill="#8dd3c7" stroke="transparent" points="669,-10 669,-30 689,-30 689,-10 669,-10"/>
<text text-anchor="start" x="692.7251" y="-15.4" font-family="sans-serif" font-size="14.00" fill="#000000"> &#160;Module</text>
<polygon fill="#80b1d3" stroke="transparent" points="755,-10 755,-30 775,-30 775,-10 755,-10"/>
<text text-anchor="start" x="778.7812" y="-15.4" font-family="sans-serif" font-size="14.00" fill="#000000"> &#160;Bootstrap</text>
<polygon fill="#fdb462" stroke="transparent" points="852,-10 852,-30 872,-30 872,-10 852,-10"/>
<text text-anchor="start" x="875.6732" y="-15.4" font-family="sans-serif" font-size="14.00" fill="#000000"> &#160;Providers</text>
<polygon fill="#fb8072" stroke="transparent" points="948,-10 948,-30 968,-30 968,-10 948,-10"/>
<text text-anchor="start" x="971.7258" y="-15.4" font-family="sans-serif" font-size="14.00" fill="#000000"> &#160;Exports</text>
<g id="clust1" class="cluster">
<title>cluster_AppModule</title>
<polygon fill="none" stroke="#000000" stroke-dasharray="1,5" points="8,-70 8,-268 1572,-268 1572,-70 8,-70"/>
</g>
<g id="clust2" class="cluster">
<title>cluster_AppModule_declarations</title>
<polygon fill="none" stroke="#000000" points="1442,-78 1442,-130 1564,-130 1564,-78 1442,-78"/>
</g>
<g id="clust4" class="cluster">
<title>cluster_AppModule_imports</title>
<polygon fill="none" stroke="#000000" points="16,-78 16,-130 1434,-130 1434,-78 16,-78"/>
</g>
<g id="clust6" class="cluster">
<title>cluster_AppModule_bootstrap</title>
<polygon fill="none" stroke="#000000" points="739,-208 739,-260 863,-260 863,-208 739,-208"/>
</g>
<!-- AppComponent -->
<g id="node1" class="node">
<title>AppComponent</title>
<polygon fill="#ffffb3" stroke="#000000" points="1555.9399,-122 1450.0601,-122 1450.0601,-86 1555.9399,-86 1555.9399,-122"/>
<text text-anchor="middle" x="1503" y="-99.8" font-family="Times,serif" font-size="14.00" fill="#000000">AppComponent</text>
</g>
<!-- AppModule -->
<g id="node2" class="node">
<title>AppModule</title>
<polygon fill="#8dd3c7" stroke="#000000" points="842.6571,-187 839.6571,-191 818.6571,-191 815.6571,-187 759.3429,-187 759.3429,-151 842.6571,-151 842.6571,-187"/>
<text text-anchor="middle" x="801" y="-164.8" font-family="Times,serif" font-size="14.00" fill="#000000">AppModule</text>
</g>
<!-- AppComponent&#45;&gt;AppModule -->
<g id="edge1" class="edge">
<title>AppComponent&#45;&gt;AppModule</title>
<path fill="none" stroke="#000000" d="M1503,-122.2479C1503,-145.0179 1503,-181 1503,-181 1503,-181 852.811,-181 852.811,-181"/>
<polygon fill="#000000" stroke="#000000" points="852.811,-177.5001 842.811,-181 852.811,-184.5001 852.811,-177.5001"/>
</g>
<!-- AppComponent  -->
<g id="node14" class="node">
<title>AppComponent </title>
<polygon fill="#80b1d3" stroke="#000000" points="855.439,-252 746.561,-252 746.561,-216 855.439,-216 855.439,-252"/>
<text text-anchor="middle" x="801" y="-229.8" font-family="Times,serif" font-size="14.00" fill="#000000">AppComponent </text>
</g>
<!-- AppModule&#45;&gt;AppComponent  -->
<g id="edge13" class="edge">
<title>AppModule&#45;&gt;AppComponent </title>
<path fill="none" stroke="#000000" stroke-dasharray="1,5" d="M801,-187.1061C801,-187.1061 801,-205.991 801,-205.991"/>
<polygon fill="#000000" stroke="#000000" points="797.5001,-205.9909 801,-215.991 804.5001,-205.991 797.5001,-205.9909"/>
</g>
<!-- AboutModule -->
<g id="node3" class="node">
<title>AboutModule</title>
<polygon fill="#8dd3c7" stroke="#000000" points="1426.0481,-122 1423.0481,-126 1402.0481,-126 1399.0481,-122 1331.9519,-122 1331.9519,-86 1426.0481,-86 1426.0481,-122"/>
<text text-anchor="middle" x="1379" y="-99.8" font-family="Times,serif" font-size="14.00" fill="#000000">AboutModule</text>
</g>
<!-- AboutModule&#45;&gt;AppModule -->
<g id="edge2" class="edge">
<title>AboutModule&#45;&gt;AppModule</title>
<path fill="none" stroke="#000000" d="M1379,-122.2843C1379,-143.3211 1379,-175 1379,-175 1379,-175 853.0339,-175 853.0339,-175"/>
<polygon fill="#000000" stroke="#000000" points="853.034,-171.5001 843.0339,-175 853.0339,-178.5001 853.034,-171.5001"/>
</g>
<!-- AnalyticsModule -->
<g id="node4" class="node">
<title>AnalyticsModule</title>
<polygon fill="#8dd3c7" stroke="#000000" points="1313.7022,-122 1310.7022,-126 1289.7022,-126 1286.7022,-122 1200.2978,-122 1200.2978,-86 1313.7022,-86 1313.7022,-122"/>
<text text-anchor="middle" x="1257" y="-99.8" font-family="Times,serif" font-size="14.00" fill="#000000">AnalyticsModule</text>
</g>
<!-- AnalyticsModule&#45;&gt;AppModule -->
<g id="edge3" class="edge">
<title>AnalyticsModule&#45;&gt;AppModule</title>
<path fill="none" stroke="#000000" d="M1257,-122.1061C1257,-141.3391 1257,-169 1257,-169 1257,-169 852.6758,-169 852.6758,-169"/>
<polygon fill="#000000" stroke="#000000" points="852.6758,-165.5001 842.6758,-169 852.6758,-172.5001 852.6758,-165.5001"/>
</g>
<!-- AppsModule -->
<g id="node5" class="node">
<title>AppsModule</title>
<polygon fill="#8dd3c7" stroke="#000000" points="1182.6011,-122 1179.6011,-126 1158.6011,-126 1155.6011,-122 1093.3989,-122 1093.3989,-86 1182.6011,-86 1182.6011,-122"/>
<text text-anchor="middle" x="1138" y="-99.8" font-family="Times,serif" font-size="14.00" fill="#000000">AppsModule</text>
</g>
<!-- AppsModule&#45;&gt;AppModule -->
<g id="edge4" class="edge">
<title>AppsModule&#45;&gt;AppModule</title>
<path fill="none" stroke="#000000" d="M1138,-122.0225C1138,-139.3734 1138,-163 1138,-163 1138,-163 852.6608,-163 852.6608,-163"/>
<polygon fill="#000000" stroke="#000000" points="852.6608,-159.5001 842.6608,-163 852.6608,-166.5001 852.6608,-159.5001"/>
</g>
<!-- BrowserModule -->
<g id="node6" class="node">
<title>BrowserModule</title>
<polygon fill="#8dd3c7" stroke="#000000" points="1075.4734,-122 1072.4734,-126 1051.4734,-126 1048.4734,-122 968.5266,-122 968.5266,-86 1075.4734,-86 1075.4734,-122"/>
<text text-anchor="middle" x="1022" y="-99.8" font-family="Times,serif" font-size="14.00" fill="#000000">BrowserModule</text>
</g>
<!-- BrowserModule&#45;&gt;AppModule -->
<g id="edge5" class="edge">
<title>BrowserModule&#45;&gt;AppModule</title>
<path fill="none" stroke="#000000" d="M1022,-122.2396C1022,-137.5706 1022,-157 1022,-157 1022,-157 852.8282,-157 852.8282,-157"/>
<polygon fill="#000000" stroke="#000000" points="852.8283,-153.5001 842.8282,-157 852.8282,-160.5001 852.8283,-153.5001"/>
</g>
<!-- AppRoutingModule -->
<g id="node7" class="node">
<title>AppRoutingModule</title>
<polygon fill="#8dd3c7" stroke="#000000" points="950.2744,-122 947.2744,-126 926.2744,-126 923.2744,-122 821.7256,-122 821.7256,-86 950.2744,-86 950.2744,-122"/>
<text text-anchor="middle" x="886" y="-99.8" font-family="Times,serif" font-size="14.00" fill="#000000">AppRoutingModule</text>
</g>
<!-- AppRoutingModule&#45;&gt;AppModule -->
<g id="edge6" class="edge">
<title>AppRoutingModule&#45;&gt;AppModule</title>
<path fill="none" stroke="#000000" d="M832.2206,-122.1061C832.2206,-122.1061 832.2206,-140.991 832.2206,-140.991"/>
<polygon fill="#000000" stroke="#000000" points="828.7206,-140.9909 832.2206,-150.991 835.7206,-140.991 828.7206,-140.9909"/>
</g>
<!-- BrowserAnimationsModule -->
<g id="node8" class="node">
<title>BrowserAnimationsModule</title>
<polygon fill="#8dd3c7" stroke="#000000" points="803.3019,-122 800.3019,-126 779.3019,-126 776.3019,-122 630.6981,-122 630.6981,-86 803.3019,-86 803.3019,-122"/>
<text text-anchor="middle" x="717" y="-99.8" font-family="Times,serif" font-size="14.00" fill="#000000">BrowserAnimationsModule</text>
</g>
<!-- BrowserAnimationsModule&#45;&gt;AppModule -->
<g id="edge7" class="edge">
<title>BrowserAnimationsModule&#45;&gt;AppModule</title>
<path fill="none" stroke="#000000" d="M781.1613,-122.1061C781.1613,-122.1061 781.1613,-140.991 781.1613,-140.991"/>
<polygon fill="#000000" stroke="#000000" points="777.6614,-140.9909 781.1613,-150.991 784.6614,-140.991 777.6614,-140.9909"/>
</g>
<!-- JobsModule -->
<g id="node9" class="node">
<title>JobsModule</title>
<polygon fill="#8dd3c7" stroke="#000000" points="613.4401,-122 610.4401,-126 589.4401,-126 586.4401,-122 528.5599,-122 528.5599,-86 613.4401,-86 613.4401,-122"/>
<text text-anchor="middle" x="571" y="-99.8" font-family="Times,serif" font-size="14.00" fill="#000000">JobsModule</text>
</g>
<!-- JobsModule&#45;&gt;AppModule -->
<g id="edge8" class="edge">
<title>JobsModule&#45;&gt;AppModule</title>
<path fill="none" stroke="#000000" d="M571,-122.2396C571,-137.5706 571,-157 571,-157 571,-157 749.0819,-157 749.0819,-157"/>
<polygon fill="#000000" stroke="#000000" points="749.0819,-160.5001 759.0819,-157 749.0819,-153.5001 749.0819,-160.5001"/>
</g>
<!-- RuntimeAppsModule -->
<g id="node10" class="node">
<title>RuntimeAppsModule</title>
<polygon fill="#8dd3c7" stroke="#000000" points="510.8244,-122 507.8244,-126 486.8244,-126 483.8244,-122 373.1756,-122 373.1756,-86 510.8244,-86 510.8244,-122"/>
<text text-anchor="middle" x="442" y="-99.8" font-family="Times,serif" font-size="14.00" fill="#000000">RuntimeAppsModule</text>
</g>
<!-- RuntimeAppsModule&#45;&gt;AppModule -->
<g id="edge9" class="edge">
<title>RuntimeAppsModule&#45;&gt;AppModule</title>
<path fill="none" stroke="#000000" d="M442,-122.0225C442,-139.3734 442,-163 442,-163 442,-163 749.1155,-163 749.1155,-163"/>
<polygon fill="#000000" stroke="#000000" points="749.1156,-166.5001 759.1155,-163 749.1155,-159.5001 749.1156,-166.5001"/>
</g>
<!-- SharedModule -->
<g id="node11" class="node">
<title>SharedModule</title>
<polygon fill="#8dd3c7" stroke="#000000" points="355.4231,-122 352.4231,-126 331.4231,-126 328.4231,-122 256.5769,-122 256.5769,-86 355.4231,-86 355.4231,-122"/>
<text text-anchor="middle" x="306" y="-99.8" font-family="Times,serif" font-size="14.00" fill="#000000">SharedModule</text>
</g>
<!-- SharedModule&#45;&gt;AppModule -->
<g id="edge10" class="edge">
<title>SharedModule&#45;&gt;AppModule</title>
<path fill="none" stroke="#000000" d="M306,-122.1061C306,-141.3391 306,-169 306,-169 306,-169 749.2232,-169 749.2232,-169"/>
<polygon fill="#000000" stroke="#000000" points="749.2232,-172.5001 759.2232,-169 749.2232,-165.5001 749.2232,-172.5001"/>
</g>
<!-- StreamsModule -->
<g id="node12" class="node">
<title>StreamsModule</title>
<polygon fill="#8dd3c7" stroke="#000000" points="238.1486,-122 235.1486,-126 214.1486,-126 211.1486,-122 133.8514,-122 133.8514,-86 238.1486,-86 238.1486,-122"/>
<text text-anchor="middle" x="186" y="-99.8" font-family="Times,serif" font-size="14.00" fill="#000000">StreamsModule</text>
</g>
<!-- StreamsModule&#45;&gt;AppModule -->
<g id="edge11" class="edge">
<title>StreamsModule&#45;&gt;AppModule</title>
<path fill="none" stroke="#000000" d="M186,-122.2843C186,-143.3211 186,-175 186,-175 186,-175 749.2121,-175 749.2121,-175"/>
<polygon fill="#000000" stroke="#000000" points="749.2121,-178.5001 759.2121,-175 749.212,-171.5001 749.2121,-178.5001"/>
</g>
<!-- TasksModule -->
<g id="node13" class="node">
<title>TasksModule</title>
<polygon fill="#8dd3c7" stroke="#000000" points="116.2064,-122 113.2064,-126 92.2064,-126 89.2064,-122 23.7936,-122 23.7936,-86 116.2064,-86 116.2064,-122"/>
<text text-anchor="middle" x="70" y="-99.8" font-family="Times,serif" font-size="14.00" fill="#000000">TasksModule</text>
</g>
<!-- TasksModule&#45;&gt;AppModule -->
<g id="edge12" class="edge">
<title>TasksModule&#45;&gt;AppModule</title>
<path fill="none" stroke="#000000" d="M70,-122.2479C70,-145.0179 70,-181 70,-181 70,-181 749.3386,-181 749.3386,-181"/>
<polygon fill="#000000" stroke="#000000" points="749.3387,-184.5001 759.3386,-181 749.3386,-177.5001 749.3387,-184.5001"/>
</g>
</g>
</svg>
