<?xml version="1.0" encoding="UTF-8" standalone="no"?>
<!DOCTYPE svg PUBLIC "-//W3C//DTD SVG 1.1//EN"
 "http://www.w3.org/Graphics/SVG/1.1/DTD/svg11.dtd">
<!-- Generated by graphviz version 2.40.1 (20161225.0304)
 -->
<!-- Title: dependencies Pages: 1 -->
<svg width="1082pt" height="211pt"
 viewBox="0.00 0.00 1082.00 211.00" xmlns="http://www.w3.org/2000/svg" xmlns:xlink="http://www.w3.org/1999/xlink">
<g id="graph0" class="graph" transform="scale(1 1) rotate(0) translate(4 207)">
<title>dependencies</title>
<polygon fill="#ffffff" stroke="transparent" points="-4,4 -4,-207 1078,-207 1078,4 -4,4"/>
<text text-anchor="start" x="516.0091" y="-42.4" font-family="sans-serif" font-weight="bold" font-size="14.00" fill="#000000">Legend</text>
<polygon fill="#ffffb3" stroke="transparent" points="303,-10 303,-30 323,-30 323,-10 303,-10"/>
<text text-anchor="start" x="326.629" y="-15.4" font-family="sans-serif" font-size="14.00" fill="#000000"> &#160;Declarations</text>
<polygon fill="#8dd3c7" stroke="transparent" points="416,-10 416,-30 436,-30 436,-10 416,-10"/>
<text text-anchor="start" x="439.7251" y="-15.4" font-family="sans-serif" font-size="14.00" fill="#000000"> &#160;Module</text>
<polygon fill="#80b1d3" stroke="transparent" points="502,-10 502,-30 522,-30 522,-10 502,-10"/>
<text text-anchor="start" x="525.7812" y="-15.4" font-family="sans-serif" font-size="14.00" fill="#000000"> &#160;Bootstrap</text>
<polygon fill="#fdb462" stroke="transparent" points="599,-10 599,-30 619,-30 619,-10 599,-10"/>
<text text-anchor="start" x="622.6732" y="-15.4" font-family="sans-serif" font-size="14.00" fill="#000000"> &#160;Providers</text>
<polygon fill="#fb8072" stroke="transparent" points="695,-10 695,-30 715,-30 715,-10 695,-10"/>
<text text-anchor="start" x="718.7258" y="-15.4" font-family="sans-serif" font-size="14.00" fill="#000000"> &#160;Exports</text>
<g id="clust1" class="cluster">
<title>cluster_RuntimeAppsModule</title>
<polygon fill="none" stroke="#000000" stroke-dasharray="1,5" points="8,-70 8,-195 1066,-195 1066,-70 8,-70"/>
</g>
<g id="clust2" class="cluster">
<title>cluster_RuntimeAppsModule_declarations</title>
<polygon fill="none" stroke="#000000" points="882,-78 882,-130 1058,-130 1058,-78 882,-78"/>
</g>
<g id="clust4" class="cluster">
<title>cluster_RuntimeAppsModule_imports</title>
<polygon fill="none" stroke="#000000" points="228,-78 228,-130 874,-130 874,-78 228,-78"/>
</g>
<g id="clust7" class="cluster">
<title>cluster_RuntimeAppsModule_providers</title>
<polygon fill="none" stroke="#000000" points="16,-78 16,-130 220,-130 220,-78 16,-78"/>
</g>
<!-- RuntimeAppsComponent -->
<g id="node1" class="node">
<title>RuntimeAppsComponent</title>
<polygon fill="#ffffb3" stroke="#000000" points="1049.6066,-122 890.3934,-122 890.3934,-86 1049.6066,-86 1049.6066,-122"/>
<text text-anchor="middle" x="970" y="-99.8" font-family="Times,serif" font-size="14.00" fill="#000000">RuntimeAppsComponent</text>
</g>
<!-- RuntimeAppsModule -->
<g id="node2" class="node">
<title>RuntimeAppsModule</title>
<polygon fill="#8dd3c7" stroke="#000000" points="615.8244,-187 612.8244,-191 591.8244,-191 588.8244,-187 478.1756,-187 478.1756,-151 615.8244,-151 615.8244,-187"/>
<text text-anchor="middle" x="547" y="-164.8" font-family="Times,serif" font-size="14.00" fill="#000000">RuntimeAppsModule</text>
</g>
<!-- RuntimeAppsComponent&#45;&gt;RuntimeAppsModule -->
<g id="edge1" class="edge">
<title>RuntimeAppsComponent&#45;&gt;RuntimeAppsModule</title>
<path fill="none" stroke="#000000" d="M970,-122.2843C970,-143.3211 970,-175 970,-175 970,-175 625.9037,-175 625.9037,-175"/>
<polygon fill="#000000" stroke="#000000" points="625.9037,-171.5001 615.9037,-175 625.9037,-178.5001 625.9037,-171.5001"/>
</g>
<!-- RuntimeAppsRoutingModule -->
<g id="node3" class="node">
<title>RuntimeAppsRoutingModule</title>
<polygon fill="#8dd3c7" stroke="#000000" points="866.4423,-122 863.4423,-126 842.4423,-126 839.4423,-122 683.5577,-122 683.5577,-86 866.4423,-86 866.4423,-122"/>
<text text-anchor="middle" x="775" y="-99.8" font-family="Times,serif" font-size="14.00" fill="#000000">RuntimeAppsRoutingModule</text>
</g>
<!-- RuntimeAppsRoutingModule&#45;&gt;RuntimeAppsModule -->
<g id="edge2" class="edge">
<title>RuntimeAppsRoutingModule&#45;&gt;RuntimeAppsModule</title>
<path fill="none" stroke="#000000" d="M775,-122.0225C775,-139.3734 775,-163 775,-163 775,-163 625.7167,-163 625.7167,-163"/>
<polygon fill="#000000" stroke="#000000" points="625.7167,-159.5001 615.7167,-163 625.7167,-166.5001 625.7167,-159.5001"/>
</g>
<!-- SharedModule -->
<g id="node4" class="node">
<title>SharedModule</title>
<polygon fill="#8dd3c7" stroke="#000000" points="666.4231,-122 663.4231,-126 642.4231,-126 639.4231,-122 567.5769,-122 567.5769,-86 666.4231,-86 666.4231,-122"/>
<text text-anchor="middle" x="617" y="-99.8" font-family="Times,serif" font-size="14.00" fill="#000000">SharedModule</text>
</g>
<!-- SharedModule&#45;&gt;RuntimeAppsModule -->
<g id="edge3" class="edge">
<title>SharedModule&#45;&gt;RuntimeAppsModule</title>
<path fill="none" stroke="#000000" d="M591.7255,-122.1061C591.7255,-122.1061 591.7255,-140.991 591.7255,-140.991"/>
<polygon fill="#000000" stroke="#000000" points="588.2255,-140.9909 591.7255,-150.991 595.2255,-140.991 588.2255,-140.9909"/>
</g>
<!-- NgxPaginationModule -->
<g id="node5" class="node">
<title>NgxPaginationModule</title>
<polygon fill="#8dd3c7" stroke="#000000" points="549.5407,-122 546.5407,-126 525.5407,-126 522.5407,-122 406.4593,-122 406.4593,-86 549.5407,-86 549.5407,-122"/>
<text text-anchor="middle" x="478" y="-99.8" font-family="Times,serif" font-size="14.00" fill="#000000">NgxPaginationModule</text>
</g>
<!-- NgxPaginationModule&#45;&gt;RuntimeAppsModule -->
<g id="edge4" class="edge">
<title>NgxPaginationModule&#45;&gt;RuntimeAppsModule</title>
<path fill="none" stroke="#000000" d="M514.054,-122.1061C514.054,-122.1061 514.054,-140.991 514.054,-140.991"/>
<polygon fill="#000000" stroke="#000000" points="510.5541,-140.9909 514.054,-150.991 517.5541,-140.991 510.5541,-140.9909"/>
</g>
<!-- ModalModule.forRoot() -->
<g id="node6" class="node">
<title>ModalModule.forRoot()</title>
<polygon fill="#8dd3c7" stroke="#000000" points="388.4699,-122 385.4699,-126 364.4699,-126 361.4699,-122 235.5301,-122 235.5301,-86 388.4699,-86 388.4699,-122"/>
<text text-anchor="middle" x="312" y="-99.8" font-family="Times,serif" font-size="14.00" fill="#000000">ModalModule.forRoot()</text>
</g>
<!-- ModalModule.forRoot()&#45;&gt;RuntimeAppsModule -->
<g id="edge5" class="edge">
<title>ModalModule.forRoot()&#45;&gt;RuntimeAppsModule</title>
<path fill="none" stroke="#000000" d="M312,-122.0225C312,-139.3734 312,-163 312,-163 312,-163 468.0801,-163 468.0801,-163"/>
<polygon fill="#000000" stroke="#000000" points="468.0801,-166.5001 478.0801,-163 468.0801,-159.5001 468.0801,-166.5001"/>
</g>
<!-- RuntimeAppsService -->
<g id="node7" class="node">
<title>RuntimeAppsService</title>
<ellipse fill="#fdb462" stroke="#000000" cx="118" cy="-104" rx="93.7784" ry="18"/>
<text text-anchor="middle" x="118" y="-99.8" font-family="Times,serif" font-size="14.00" fill="#000000">RuntimeAppsService</text>
</g>
<!-- RuntimeAppsService&#45;&gt;RuntimeAppsModule -->
<g id="edge6" class="edge">
<title>RuntimeAppsService&#45;&gt;RuntimeAppsModule</title>
<path fill="none" stroke="#000000" d="M118,-122.2843C118,-143.3211 118,-175 118,-175 118,-175 468.0737,-175 468.0737,-175"/>
<polygon fill="#000000" stroke="#000000" points="468.0738,-178.5001 478.0737,-175 468.0737,-171.5001 468.0738,-178.5001"/>
</g>
</g>
</svg>
